%TF.GenerationSoftware,KiCad,Pcbnew,10.0.6*%
%TF.CreationDate,2026-10-07T16:35:16+01:00*%
%TF.ProjectId,starbie,73746172-6269-4652-9e6b-696361645f70,rev?*%
%TF.SameCoordinates,Original*%
%TF.FileFunction,Copper,L1,Top*%
%TF.FilePolarity,Positive*%
%FSLAX46Y46*%
G04 Gerber Fmt 4.6, Leading zero omitted, Abs format (unit mm)*
G04 Created by KiCad (PCBNEW 10.0.6) date 2026-10-07 16:35:16*
%MOMM*%
%LPD*%
G01*
G04 APERTURE LIST*
%TA.AperFunction,ComponentPad*%
%ADD10C,2.200000*%
%TD*%
%TA.AperFunction,ComponentPad*%
%ADD11R,1.700000X1.700000*%
%TD*%
%TA.AperFunction,ComponentPad*%
%ADD12O,1.700000X1.700000*%
%TD*%
%TA.AperFunction,ComponentPad*%
%ADD13R,1.500000X1.500000*%
%TD*%
%TA.AperFunction,ComponentPad*%
%ADD14C,1.500000*%
%TD*%
%TA.AperFunction,ComponentPad*%
%ADD15C,1.400000*%
%TD*%
%TA.AperFunction,ComponentPad*%
%ADD16C,1.524000*%
%TD*%
%TA.AperFunction,ComponentPad*%
%ADD17C,1.700000*%
%TD*%
%TA.AperFunction,ViaPad*%
%ADD18C,0.600000*%
%TD*%
%TA.AperFunction,Conductor*%
%ADD19C,0.200000*%
%TD*%
G04 APERTURE END LIST*
D10*
%TO.P,SW2,1,1_1*%
%TO.N,/GPIO3*%
X210420000Y-37460000D03*
%TO.P,SW2,2,2_2*%
%TO.N,GND*%
X212960000Y-43810000D03*
%TD*%
D11*
%TO.P,J1,1,Pin_1_1*%
%TO.N,GND*%
X228986000Y-74000000D03*
D12*
%TO.P,J1,2,Pin_2_2*%
%TO.N,+3.3V*%
X226446000Y-74000000D03*
%TO.P,J1,3,Pin_3_3*%
%TO.N,/SCL*%
X223906000Y-74000000D03*
%TO.P,J1,4,Pin_4_4*%
%TO.N,/SDA*%
X221366000Y-74000000D03*
%TD*%
D10*
%TO.P,SW1,1,1_1*%
%TO.N,/GPIO2*%
X229920000Y-37460000D03*
%TO.P,SW1,2,2_2*%
%TO.N,GND*%
X232460000Y-43810000D03*
%TD*%
D13*
%TO.P,U2,1,VDD_1*%
%TO.N,+3.3V*%
X218500000Y-68902500D03*
D14*
%TO.P,U2,2,DATA_2*%
%TO.N,/DHT11_DATA*%
X215960000Y-68902500D03*
%TO.P,U2,3,NC_3*%
%TO.N,unconnected-(U2-NC-Pad3)*%
X213420000Y-68902500D03*
%TO.P,U2,4,GND_4*%
%TO.N,GND*%
X210880000Y-68902500D03*
%TD*%
D15*
%TO.P,R1,1*%
%TO.N,+3.3V*%
X209690000Y-70500000D03*
%TO.P,R1,2*%
%TO.N,/DHT11_DATA*%
X217310000Y-70500000D03*
%TD*%
D16*
%TO.P,U1,1,D0_1*%
%TO.N,unconnected-(U1-D0-Pad1)*%
X239660000Y-69120000D03*
%TO.P,U1,2,D1_2*%
%TO.N,/DHT11_DATA*%
X237120000Y-69120000D03*
%TO.P,U1,3,D2_3*%
%TO.N,/GPIO2*%
X234580000Y-69120000D03*
%TO.P,U1,4,D3_4*%
%TO.N,/GPIO3*%
X232040000Y-69120000D03*
%TO.P,U1,5,D4_5*%
%TO.N,/SCL*%
X229500000Y-69120000D03*
%TO.P,U1,6,D5_6*%
%TO.N,/SDA*%
X226960000Y-69120000D03*
%TO.P,U1,7,D6_7*%
%TO.N,unconnected-(U1-D6-Pad7)*%
X224420000Y-69120000D03*
%TO.P,U1,8,D7_8*%
%TO.N,unconnected-(U1-D7-Pad8)*%
X224420000Y-53880000D03*
%TO.P,U1,9,D8_9*%
%TO.N,unconnected-(U1-D8-Pad9)*%
X226960000Y-53880000D03*
%TO.P,U1,10,D9/BOOT_10*%
%TO.N,unconnected-(U1-D9{slash}BOOT-Pad10)_1*%
X229500000Y-53880000D03*
%TO.P,U1,11,D10_11*%
%TO.N,unconnected-(U1-D10-Pad11)*%
X232040000Y-53880000D03*
%TO.P,U1,12,3V3_OUT_12*%
%TO.N,+3.3V*%
X234580000Y-53880000D03*
%TO.P,U1,13,GND_13*%
%TO.N,GND*%
X237120000Y-53880000D03*
%TO.P,U1,14,VBUS_14*%
%TO.N,+5V*%
X239660000Y-53880000D03*
%TD*%
D11*
%TO.P,J2,1,Pin_1_1*%
%TO.N,+3.3V*%
X240240000Y-49500000D03*
D17*
%TO.P,J2,2,Pin_2_2*%
%TO.N,GND*%
X237700000Y-49500000D03*
%TO.P,J2,3,Pin_3_3*%
%TO.N,/SCL*%
X235160000Y-49500000D03*
%TO.P,J2,4,Pin_4_4*%
%TO.N,/SDA*%
X232620000Y-49500000D03*
%TO.P,J2,5,Pin_5_5*%
%TO.N,unconnected-(J2-Pin_5-Pad5)*%
X230080000Y-49500000D03*
%TO.P,J2,6,Pin_6_6*%
%TO.N,unconnected-(J2-Pin_6-Pad6)*%
X227540000Y-49500000D03*
%TO.P,J2,7,Pin_7_7*%
%TO.N,unconnected-(J2-Pin_7-Pad7)*%
X225000000Y-49500000D03*
%TO.P,J2,8,Pin_8_8*%
%TO.N,unconnected-(J2-Pin_8-Pad8)*%
X222460000Y-49500000D03*
%TD*%
D18*
%TO.N,/SDA*%
X231000000Y-62500000D03*
%TO.N,/SCL*%
X232000000Y-62500000D03*
%TO.N,/GPIO2*%
X220000000Y-48000000D03*
%TO.N,/GPIO3*%
X219000000Y-48000000D03*
%TD*%
%TO.N,/SDA*%
D19*
X226960000Y-66540000D02*
X231000000Y-62500000D01*
X226960000Y-69120000D02*
X226960000Y-66540000D01*
%TO.N,/SCL*%
X229500000Y-69120000D02*
X229500000Y-65000000D01*
X229500000Y-65000000D02*
X232000000Y-62500000D01*
%TO.N,+3.3V*%
X219557500Y-68902500D02*
X234580000Y-53880000D01*
X218500000Y-68902500D02*
X219557500Y-68902500D01*
X215847425Y-70500000D02*
X217444925Y-68902500D01*
X217444925Y-68902500D02*
X218500000Y-68902500D01*
X209690000Y-70500000D02*
X215847425Y-70500000D01*
%TO.N,/DHT11_DATA*%
X235740000Y-70500000D02*
X237120000Y-69120000D01*
X217310000Y-70500000D02*
X235740000Y-70500000D01*
%TO.N,/GPIO2*%
X220000000Y-47380000D02*
X220000000Y-48000000D01*
X229920000Y-37460000D02*
X220000000Y-47380000D01*
%TO.N,/GPIO3*%
X210420000Y-37460000D02*
X210420000Y-38243402D01*
X219000000Y-46823402D02*
X219000000Y-48000000D01*
X210420000Y-38243402D02*
X219000000Y-46823402D01*
%TD*%
%TA.AperFunction,Conductor*%
%TO.N,GND*%
G36*
X241942539Y-33020185D02*
G01*
X241988294Y-33072989D01*
X241999500Y-33124500D01*
X241999500Y-75375500D01*
X241979815Y-75442539D01*
X241927011Y-75488294D01*
X241875500Y-75499500D01*
X237313962Y-75499500D01*
X237246923Y-75479815D01*
X237201168Y-75427011D01*
X237191224Y-75357853D01*
X237220249Y-75294297D01*
X237279027Y-75256523D01*
X237281822Y-75255737D01*
X237430313Y-75215950D01*
X237666535Y-75118104D01*
X237887965Y-74990261D01*
X238090813Y-74834610D01*
X238271610Y-74653813D01*
X238427261Y-74450965D01*
X238555104Y-74229535D01*
X238652950Y-73993313D01*
X238719126Y-73746340D01*
X238752500Y-73492843D01*
X238752500Y-73237157D01*
X238719126Y-72983660D01*
X238652950Y-72736687D01*
X238652947Y-72736679D01*
X238652946Y-72736676D01*
X238555105Y-72500468D01*
X238555100Y-72500457D01*
X238427265Y-72279042D01*
X238427261Y-72279035D01*
X238271610Y-72076187D01*
X238271605Y-72076181D01*
X238090818Y-71895394D01*
X238090811Y-71895388D01*
X237887973Y-71739745D01*
X237887971Y-71739743D01*
X237887965Y-71739739D01*
X237887960Y-71739736D01*
X237887957Y-71739734D01*
X237666542Y-71611899D01*
X237666531Y-71611894D01*
X237430322Y-71514053D01*
X237430315Y-71514051D01*
X237430313Y-71514050D01*
X237183340Y-71447874D01*
X237127007Y-71440457D01*
X236929850Y-71414500D01*
X236929843Y-71414500D01*
X235774157Y-71414500D01*
X235774149Y-71414500D01*
X235548826Y-71444165D01*
X235520660Y-71447874D01*
X235273687Y-71514050D01*
X235273677Y-71514053D01*
X235037468Y-71611894D01*
X235037457Y-71611899D01*
X234816042Y-71739734D01*
X234816026Y-71739745D01*
X234613188Y-71895388D01*
X234613181Y-71895394D01*
X234432394Y-72076181D01*
X234432388Y-72076188D01*
X234276745Y-72279026D01*
X234276734Y-72279042D01*
X234148899Y-72500457D01*
X234148894Y-72500468D01*
X234051054Y-72736676D01*
X234051050Y-72736687D01*
X233984874Y-72983661D01*
X233951500Y-73237149D01*
X233951500Y-73492850D01*
X233976635Y-73683757D01*
X233984874Y-73746340D01*
X234035204Y-73934174D01*
X234051050Y-73993312D01*
X234051053Y-73993322D01*
X234148894Y-74229531D01*
X234148899Y-74229542D01*
X234276734Y-74450957D01*
X234276745Y-74450973D01*
X234432388Y-74653811D01*
X234432394Y-74653818D01*
X234613181Y-74834605D01*
X234613187Y-74834610D01*
X234816035Y-74990261D01*
X234816042Y-74990265D01*
X235037457Y-75118100D01*
X235037462Y-75118102D01*
X235037465Y-75118104D01*
X235273687Y-75215950D01*
X235422133Y-75255726D01*
X235481792Y-75292090D01*
X235512321Y-75354937D01*
X235504026Y-75424313D01*
X235459541Y-75478190D01*
X235392989Y-75499465D01*
X235390038Y-75499500D01*
X230175269Y-75499500D01*
X230108230Y-75479815D01*
X230062475Y-75427011D01*
X230052531Y-75357853D01*
X230081556Y-75294297D01*
X230100958Y-75276234D01*
X230193187Y-75207190D01*
X230193190Y-75207187D01*
X230279350Y-75092093D01*
X230279354Y-75092086D01*
X230329596Y-74957379D01*
X230329598Y-74957372D01*
X230335999Y-74897844D01*
X230336000Y-74897827D01*
X230336000Y-74250000D01*
X229419012Y-74250000D01*
X229451925Y-74192993D01*
X229486000Y-74065826D01*
X229486000Y-73934174D01*
X229451925Y-73807007D01*
X229419012Y-73750000D01*
X230336000Y-73750000D01*
X230336000Y-73102172D01*
X230335999Y-73102155D01*
X230329598Y-73042627D01*
X230329596Y-73042620D01*
X230279354Y-72907913D01*
X230279350Y-72907906D01*
X230193190Y-72792812D01*
X230193187Y-72792809D01*
X230078093Y-72706649D01*
X230078086Y-72706645D01*
X229943379Y-72656403D01*
X229943372Y-72656401D01*
X229883844Y-72650000D01*
X229236000Y-72650000D01*
X229236000Y-73566988D01*
X229178993Y-73534075D01*
X229051826Y-73500000D01*
X228920174Y-73500000D01*
X228793007Y-73534075D01*
X228736000Y-73566988D01*
X228736000Y-72650000D01*
X228088155Y-72650000D01*
X228028627Y-72656401D01*
X228028620Y-72656403D01*
X227893913Y-72706645D01*
X227893906Y-72706649D01*
X227778812Y-72792809D01*
X227778809Y-72792812D01*
X227692649Y-72907906D01*
X227692646Y-72907912D01*
X227643577Y-73039471D01*
X227601705Y-73095404D01*
X227536241Y-73119821D01*
X227467968Y-73104969D01*
X227439714Y-73083818D01*
X227325786Y-72969890D01*
X227153820Y-72844951D01*
X226964414Y-72748444D01*
X226964413Y-72748443D01*
X226964412Y-72748443D01*
X226762243Y-72682754D01*
X226762241Y-72682753D01*
X226762240Y-72682753D01*
X226600957Y-72657208D01*
X226552287Y-72649500D01*
X226339713Y-72649500D01*
X226291042Y-72657208D01*
X226129760Y-72682753D01*
X225927585Y-72748444D01*
X225738179Y-72844951D01*
X225566213Y-72969890D01*
X225415890Y-73120213D01*
X225290949Y-73292182D01*
X225286484Y-73300946D01*
X225238509Y-73351742D01*
X225170688Y-73368536D01*
X225104553Y-73345998D01*
X225065516Y-73300946D01*
X225061050Y-73292182D01*
X224936109Y-73120213D01*
X224785786Y-72969890D01*
X224613820Y-72844951D01*
X224424414Y-72748444D01*
X224424413Y-72748443D01*
X224424412Y-72748443D01*
X224222243Y-72682754D01*
X224222241Y-72682753D01*
X224222240Y-72682753D01*
X224060957Y-72657208D01*
X224012287Y-72649500D01*
X223799713Y-72649500D01*
X223751042Y-72657208D01*
X223589760Y-72682753D01*
X223387585Y-72748444D01*
X223198179Y-72844951D01*
X223026213Y-72969890D01*
X222875890Y-73120213D01*
X222750949Y-73292182D01*
X222746484Y-73300946D01*
X222698509Y-73351742D01*
X222630688Y-73368536D01*
X222564553Y-73345998D01*
X222525516Y-73300946D01*
X222521050Y-73292182D01*
X222396109Y-73120213D01*
X222245786Y-72969890D01*
X222073820Y-72844951D01*
X221884414Y-72748444D01*
X221884413Y-72748443D01*
X221884412Y-72748443D01*
X221682243Y-72682754D01*
X221682241Y-72682753D01*
X221682240Y-72682753D01*
X221520957Y-72657208D01*
X221472287Y-72649500D01*
X221259713Y-72649500D01*
X221211042Y-72657208D01*
X221049760Y-72682753D01*
X220847585Y-72748444D01*
X220658179Y-72844951D01*
X220486213Y-72969890D01*
X220335890Y-73120213D01*
X220210951Y-73292179D01*
X220114444Y-73481585D01*
X220048753Y-73683760D01*
X220038262Y-73750000D01*
X220015500Y-73893713D01*
X220015500Y-74106287D01*
X220048754Y-74316243D01*
X220092525Y-74450957D01*
X220114444Y-74518414D01*
X220210951Y-74707820D01*
X220335890Y-74879786D01*
X220486213Y-75030109D01*
X220658179Y-75155048D01*
X220658181Y-75155049D01*
X220658184Y-75155051D01*
X220847588Y-75251557D01*
X220866092Y-75257569D01*
X220923768Y-75297006D01*
X220950966Y-75361365D01*
X220939051Y-75430211D01*
X220891807Y-75481687D01*
X220827774Y-75499500D01*
X214961962Y-75499500D01*
X214894923Y-75479815D01*
X214849168Y-75427011D01*
X214839224Y-75357853D01*
X214868249Y-75294297D01*
X214927027Y-75256523D01*
X214929822Y-75255737D01*
X215078313Y-75215950D01*
X215314535Y-75118104D01*
X215535965Y-74990261D01*
X215738813Y-74834610D01*
X215919610Y-74653813D01*
X216075261Y-74450965D01*
X216203104Y-74229535D01*
X216300950Y-73993313D01*
X216367126Y-73746340D01*
X216400500Y-73492843D01*
X216400500Y-73237157D01*
X216367126Y-72983660D01*
X216300950Y-72736687D01*
X216300947Y-72736679D01*
X216300946Y-72736676D01*
X216203105Y-72500468D01*
X216203100Y-72500457D01*
X216075265Y-72279042D01*
X216075261Y-72279035D01*
X215919610Y-72076187D01*
X215919605Y-72076181D01*
X215738818Y-71895394D01*
X215738811Y-71895388D01*
X215535973Y-71739745D01*
X215535971Y-71739743D01*
X215535965Y-71739739D01*
X215535960Y-71739736D01*
X215535957Y-71739734D01*
X215314542Y-71611899D01*
X215314531Y-71611894D01*
X215078322Y-71514053D01*
X215078315Y-71514051D01*
X215078313Y-71514050D01*
X214831340Y-71447874D01*
X214775007Y-71440457D01*
X214577850Y-71414500D01*
X214577843Y-71414500D01*
X213422157Y-71414500D01*
X213422149Y-71414500D01*
X213196826Y-71444165D01*
X213168660Y-71447874D01*
X212921687Y-71514050D01*
X212921677Y-71514053D01*
X212685468Y-71611894D01*
X212685457Y-71611899D01*
X212464042Y-71739734D01*
X212464026Y-71739745D01*
X212261188Y-71895388D01*
X212261181Y-71895394D01*
X212080394Y-72076181D01*
X212080388Y-72076188D01*
X211924745Y-72279026D01*
X211924734Y-72279042D01*
X211796899Y-72500457D01*
X211796894Y-72500468D01*
X211699054Y-72736676D01*
X211699050Y-72736687D01*
X211632874Y-72983661D01*
X211599500Y-73237149D01*
X211599500Y-73492850D01*
X211624635Y-73683757D01*
X211632874Y-73746340D01*
X211683204Y-73934174D01*
X211699050Y-73993312D01*
X211699053Y-73993322D01*
X211796894Y-74229531D01*
X211796899Y-74229542D01*
X211924734Y-74450957D01*
X211924745Y-74450973D01*
X212080388Y-74653811D01*
X212080394Y-74653818D01*
X212261181Y-74834605D01*
X212261187Y-74834610D01*
X212464035Y-74990261D01*
X212464042Y-74990265D01*
X212685457Y-75118100D01*
X212685462Y-75118102D01*
X212685465Y-75118104D01*
X212921687Y-75215950D01*
X213070133Y-75255726D01*
X213129792Y-75292090D01*
X213160321Y-75354937D01*
X213152026Y-75424313D01*
X213107541Y-75478190D01*
X213040989Y-75499465D01*
X213038038Y-75499500D01*
X208624500Y-75499500D01*
X208557461Y-75479815D01*
X208511706Y-75427011D01*
X208500500Y-75375500D01*
X208500500Y-71286838D01*
X208520185Y-71219799D01*
X208572989Y-71174044D01*
X208642147Y-71164100D01*
X208705703Y-71193125D01*
X208724816Y-71213951D01*
X208774310Y-71282073D01*
X208907927Y-71415690D01*
X209060801Y-71526760D01*
X209140347Y-71567290D01*
X209229163Y-71612545D01*
X209229165Y-71612545D01*
X209229168Y-71612547D01*
X209325497Y-71643846D01*
X209408881Y-71670940D01*
X209595514Y-71700500D01*
X209595519Y-71700500D01*
X209784486Y-71700500D01*
X209971118Y-71670940D01*
X210150832Y-71612547D01*
X210319199Y-71526760D01*
X210472073Y-71415690D01*
X210605690Y-71282073D01*
X210700475Y-71151613D01*
X210755804Y-71108949D01*
X210800792Y-71100500D01*
X215760756Y-71100500D01*
X215760772Y-71100501D01*
X215768368Y-71100501D01*
X215926479Y-71100501D01*
X215926482Y-71100501D01*
X216079210Y-71059577D01*
X216096284Y-71049718D01*
X216164181Y-71033242D01*
X216230209Y-71056090D01*
X216268774Y-71100808D01*
X216283238Y-71129197D01*
X216308597Y-71164100D01*
X216394310Y-71282073D01*
X216527927Y-71415690D01*
X216680801Y-71526760D01*
X216760347Y-71567290D01*
X216849163Y-71612545D01*
X216849165Y-71612545D01*
X216849168Y-71612547D01*
X216945497Y-71643846D01*
X217028881Y-71670940D01*
X217215514Y-71700500D01*
X217215519Y-71700500D01*
X217404486Y-71700500D01*
X217591118Y-71670940D01*
X217770832Y-71612547D01*
X217939199Y-71526760D01*
X218092073Y-71415690D01*
X218225690Y-71282073D01*
X218320475Y-71151613D01*
X218375804Y-71108949D01*
X218420792Y-71100500D01*
X235653331Y-71100500D01*
X235653347Y-71100501D01*
X235660943Y-71100501D01*
X235819054Y-71100501D01*
X235819057Y-71100501D01*
X235971785Y-71059577D01*
X236021904Y-71030639D01*
X236108716Y-70980520D01*
X236220520Y-70868716D01*
X236220520Y-70868714D01*
X236230728Y-70858507D01*
X236230730Y-70858504D01*
X236705473Y-70383760D01*
X236766794Y-70350277D01*
X236819521Y-70350841D01*
X236819552Y-70350651D01*
X236820843Y-70350855D01*
X236822099Y-70350869D01*
X236824352Y-70351409D01*
X236824364Y-70351413D01*
X237020639Y-70382500D01*
X237020640Y-70382500D01*
X237219360Y-70382500D01*
X237219361Y-70382500D01*
X237415636Y-70351413D01*
X237604632Y-70290005D01*
X237781694Y-70199787D01*
X237942464Y-70082981D01*
X238082981Y-69942464D01*
X238199787Y-69781694D01*
X238279515Y-69625218D01*
X238327490Y-69574423D01*
X238395311Y-69557628D01*
X238461446Y-69580165D01*
X238500484Y-69625218D01*
X238580213Y-69781694D01*
X238697019Y-69942464D01*
X238837536Y-70082981D01*
X238998306Y-70199787D01*
X239035782Y-70218882D01*
X239175367Y-70290005D01*
X239175370Y-70290006D01*
X239269866Y-70320709D01*
X239364364Y-70351413D01*
X239560639Y-70382500D01*
X239560640Y-70382500D01*
X239759360Y-70382500D01*
X239759361Y-70382500D01*
X239955636Y-70351413D01*
X240144632Y-70290005D01*
X240321694Y-70199787D01*
X240482464Y-70082981D01*
X240622981Y-69942464D01*
X240739787Y-69781694D01*
X240830005Y-69604632D01*
X240891413Y-69415636D01*
X240922500Y-69219361D01*
X240922500Y-69020639D01*
X240891413Y-68824364D01*
X240830005Y-68635368D01*
X240830005Y-68635367D01*
X240756600Y-68491304D01*
X240739787Y-68458306D01*
X240622981Y-68297536D01*
X240482464Y-68157019D01*
X240321694Y-68040213D01*
X240315508Y-68037061D01*
X240144632Y-67949994D01*
X240144629Y-67949993D01*
X239955637Y-67888587D01*
X239857498Y-67873043D01*
X239759361Y-67857500D01*
X239560639Y-67857500D01*
X239495214Y-67867862D01*
X239364362Y-67888587D01*
X239175370Y-67949993D01*
X239175367Y-67949994D01*
X238998305Y-68040213D01*
X238837533Y-68157021D01*
X238697021Y-68297533D01*
X238580213Y-68458305D01*
X238500485Y-68614780D01*
X238452510Y-68665576D01*
X238384689Y-68682371D01*
X238318554Y-68659833D01*
X238279515Y-68614780D01*
X238260179Y-68576832D01*
X238199787Y-68458306D01*
X238082981Y-68297536D01*
X237942464Y-68157019D01*
X237781694Y-68040213D01*
X237775508Y-68037061D01*
X237604632Y-67949994D01*
X237604629Y-67949993D01*
X237415637Y-67888587D01*
X237317498Y-67873043D01*
X237219361Y-67857500D01*
X237020639Y-67857500D01*
X236955214Y-67867862D01*
X236824362Y-67888587D01*
X236635370Y-67949993D01*
X236635367Y-67949994D01*
X236458305Y-68040213D01*
X236297533Y-68157021D01*
X236157021Y-68297533D01*
X236040213Y-68458305D01*
X235960485Y-68614780D01*
X235912510Y-68665576D01*
X235844689Y-68682371D01*
X235778554Y-68659833D01*
X235739515Y-68614780D01*
X235720179Y-68576832D01*
X235659787Y-68458306D01*
X235542981Y-68297536D01*
X235402464Y-68157019D01*
X235241694Y-68040213D01*
X235235508Y-68037061D01*
X235064632Y-67949994D01*
X235064629Y-67949993D01*
X234875637Y-67888587D01*
X234777498Y-67873043D01*
X234679361Y-67857500D01*
X234480639Y-67857500D01*
X234415214Y-67867862D01*
X234284362Y-67888587D01*
X234095370Y-67949993D01*
X234095367Y-67949994D01*
X233918305Y-68040213D01*
X233757533Y-68157021D01*
X233617021Y-68297533D01*
X233500213Y-68458305D01*
X233420485Y-68614780D01*
X233372510Y-68665576D01*
X233304689Y-68682371D01*
X233238554Y-68659833D01*
X233199515Y-68614780D01*
X233180179Y-68576832D01*
X233119787Y-68458306D01*
X233002981Y-68297536D01*
X232862464Y-68157019D01*
X232701694Y-68040213D01*
X232695508Y-68037061D01*
X232524632Y-67949994D01*
X232524629Y-67949993D01*
X232335637Y-67888587D01*
X232237498Y-67873043D01*
X232139361Y-67857500D01*
X231940639Y-67857500D01*
X231875214Y-67867862D01*
X231744362Y-67888587D01*
X231555370Y-67949993D01*
X231555367Y-67949994D01*
X231378305Y-68040213D01*
X231217533Y-68157021D01*
X231077021Y-68297533D01*
X230960213Y-68458305D01*
X230880485Y-68614780D01*
X230832510Y-68665576D01*
X230764689Y-68682371D01*
X230698554Y-68659833D01*
X230659515Y-68614780D01*
X230640179Y-68576832D01*
X230579787Y-68458306D01*
X230462981Y-68297536D01*
X230322464Y-68157019D01*
X230161694Y-68040213D01*
X230161690Y-68040210D01*
X230159715Y-68039000D01*
X230159121Y-68038343D01*
X230157752Y-68037349D01*
X230157960Y-68037061D01*
X230112837Y-67987190D01*
X230100500Y-67933270D01*
X230100500Y-65300097D01*
X230120185Y-65233058D01*
X230136819Y-65212416D01*
X232014662Y-63334572D01*
X232075983Y-63301089D01*
X232078150Y-63300638D01*
X232136085Y-63289113D01*
X232233497Y-63269737D01*
X232379179Y-63209394D01*
X232510289Y-63121789D01*
X232621789Y-63010289D01*
X232709394Y-62879179D01*
X232769737Y-62733497D01*
X232800500Y-62578842D01*
X232800500Y-62421158D01*
X232800500Y-62421155D01*
X232800499Y-62421153D01*
X232769738Y-62266510D01*
X232769738Y-62266508D01*
X232769737Y-62266503D01*
X232769735Y-62266498D01*
X232709397Y-62120827D01*
X232709390Y-62120814D01*
X232621789Y-61989711D01*
X232621786Y-61989707D01*
X232510292Y-61878213D01*
X232510288Y-61878210D01*
X232379185Y-61790609D01*
X232379172Y-61790602D01*
X232233501Y-61730264D01*
X232233489Y-61730261D01*
X232078845Y-61699500D01*
X232078842Y-61699500D01*
X231921158Y-61699500D01*
X231921155Y-61699500D01*
X231766510Y-61730261D01*
X231766498Y-61730264D01*
X231620827Y-61790602D01*
X231620814Y-61790609D01*
X231568891Y-61825304D01*
X231502214Y-61846182D01*
X231434833Y-61827698D01*
X231431109Y-61825304D01*
X231379185Y-61790609D01*
X231379172Y-61790602D01*
X231233501Y-61730264D01*
X231233489Y-61730261D01*
X231078845Y-61699500D01*
X231078842Y-61699500D01*
X230921158Y-61699500D01*
X230921155Y-61699500D01*
X230766510Y-61730261D01*
X230766498Y-61730264D01*
X230620827Y-61790602D01*
X230620814Y-61790609D01*
X230489711Y-61878210D01*
X230489707Y-61878213D01*
X230378213Y-61989707D01*
X230378210Y-61989711D01*
X230290609Y-62120814D01*
X230290602Y-62120827D01*
X230230264Y-62266498D01*
X230230261Y-62266508D01*
X230199362Y-62421848D01*
X230166977Y-62483759D01*
X230165426Y-62485337D01*
X226591286Y-66059478D01*
X226479481Y-66171282D01*
X226479479Y-66171285D01*
X226429361Y-66258094D01*
X226429359Y-66258096D01*
X226400425Y-66308209D01*
X226400424Y-66308210D01*
X226400423Y-66308215D01*
X226359499Y-66460943D01*
X226359499Y-66460945D01*
X226359499Y-66629046D01*
X226359500Y-66629059D01*
X226359500Y-67933270D01*
X226339815Y-68000309D01*
X226302133Y-68037191D01*
X226302248Y-68037349D01*
X226301176Y-68038127D01*
X226300285Y-68039000D01*
X226298309Y-68040210D01*
X226137533Y-68157021D01*
X225997021Y-68297533D01*
X225880213Y-68458305D01*
X225800485Y-68614780D01*
X225752510Y-68665576D01*
X225684689Y-68682371D01*
X225618554Y-68659833D01*
X225579515Y-68614780D01*
X225560179Y-68576832D01*
X225499787Y-68458306D01*
X225382981Y-68297536D01*
X225242464Y-68157019D01*
X225081694Y-68040213D01*
X225075508Y-68037061D01*
X224904632Y-67949994D01*
X224904629Y-67949993D01*
X224715637Y-67888587D01*
X224617498Y-67873043D01*
X224519361Y-67857500D01*
X224320639Y-67857500D01*
X224255214Y-67867862D01*
X224124362Y-67888587D01*
X223935370Y-67949993D01*
X223935367Y-67949994D01*
X223758305Y-68040213D01*
X223597533Y-68157021D01*
X223457021Y-68297533D01*
X223340213Y-68458305D01*
X223249994Y-68635367D01*
X223249993Y-68635370D01*
X223188587Y-68824362D01*
X223157500Y-69020639D01*
X223157500Y-69219360D01*
X223188587Y-69415637D01*
X223249993Y-69604629D01*
X223249994Y-69604632D01*
X223308373Y-69719205D01*
X223321269Y-69787874D01*
X223294993Y-69852615D01*
X223237886Y-69892872D01*
X223197888Y-69899500D01*
X219867137Y-69899500D01*
X219849914Y-69894442D01*
X219831964Y-69894407D01*
X219817085Y-69884803D01*
X219800098Y-69879815D01*
X219788345Y-69866251D01*
X219773261Y-69856515D01*
X219765936Y-69840390D01*
X219754343Y-69827011D01*
X219751788Y-69809245D01*
X219744364Y-69792901D01*
X219743847Y-69762245D01*
X219744089Y-69759986D01*
X219744091Y-69759983D01*
X219750500Y-69700373D01*
X219750499Y-69556059D01*
X219770183Y-69489021D01*
X219812495Y-69448675D01*
X219839404Y-69433139D01*
X219926216Y-69383020D01*
X220038020Y-69271216D01*
X220038020Y-69271214D01*
X220048228Y-69261007D01*
X220048230Y-69261004D01*
X234165473Y-55143760D01*
X234226794Y-55110277D01*
X234279521Y-55110841D01*
X234279552Y-55110651D01*
X234280843Y-55110855D01*
X234282099Y-55110869D01*
X234284352Y-55111409D01*
X234284364Y-55111413D01*
X234480639Y-55142500D01*
X234480640Y-55142500D01*
X234679360Y-55142500D01*
X234679361Y-55142500D01*
X234875636Y-55111413D01*
X235064632Y-55050005D01*
X235241694Y-54959787D01*
X235402464Y-54842981D01*
X235542981Y-54702464D01*
X235659787Y-54541694D01*
X235739796Y-54384667D01*
X235787769Y-54333872D01*
X235855590Y-54317077D01*
X235921725Y-54339614D01*
X235960765Y-54384668D01*
X236040641Y-54541432D01*
X236067730Y-54578715D01*
X236067731Y-54578716D01*
X236682352Y-53964094D01*
X236705792Y-54051571D01*
X236764311Y-54152930D01*
X236847070Y-54235689D01*
X236948429Y-54294208D01*
X237035905Y-54317647D01*
X236421283Y-54932268D01*
X236421283Y-54932269D01*
X236458567Y-54959358D01*
X236635562Y-55049542D01*
X236824477Y-55110924D01*
X237020679Y-55142000D01*
X237219321Y-55142000D01*
X237415520Y-55110924D01*
X237415523Y-55110924D01*
X237604437Y-55049542D01*
X237781425Y-54959362D01*
X237818716Y-54932268D01*
X237204095Y-54317647D01*
X237291571Y-54294208D01*
X237392930Y-54235689D01*
X237475689Y-54152930D01*
X237534208Y-54051571D01*
X237557647Y-53964094D01*
X238172268Y-54578715D01*
X238199364Y-54541422D01*
X238279234Y-54384669D01*
X238327208Y-54333872D01*
X238395029Y-54317077D01*
X238461164Y-54339614D01*
X238500203Y-54384667D01*
X238580213Y-54541694D01*
X238697019Y-54702464D01*
X238837536Y-54842981D01*
X238998306Y-54959787D01*
X239085149Y-55004035D01*
X239175367Y-55050005D01*
X239175370Y-55050006D01*
X239269866Y-55080709D01*
X239364364Y-55111413D01*
X239560639Y-55142500D01*
X239560640Y-55142500D01*
X239759360Y-55142500D01*
X239759361Y-55142500D01*
X239955636Y-55111413D01*
X240144632Y-55050005D01*
X240321694Y-54959787D01*
X240482464Y-54842981D01*
X240622981Y-54702464D01*
X240739787Y-54541694D01*
X240830005Y-54364632D01*
X240891413Y-54175636D01*
X240922500Y-53979361D01*
X240922500Y-53780639D01*
X240891413Y-53584364D01*
X240830005Y-53395368D01*
X240830005Y-53395367D01*
X240784035Y-53305149D01*
X240739787Y-53218306D01*
X240622981Y-53057536D01*
X240482464Y-52917019D01*
X240321694Y-52800213D01*
X240144632Y-52709994D01*
X240144629Y-52709993D01*
X239955637Y-52648587D01*
X239857498Y-52633043D01*
X239759361Y-52617500D01*
X239560639Y-52617500D01*
X239495214Y-52627862D01*
X239364362Y-52648587D01*
X239175370Y-52709993D01*
X239175367Y-52709994D01*
X238998305Y-52800213D01*
X238837533Y-52917021D01*
X238697021Y-53057533D01*
X238580213Y-53218305D01*
X238500204Y-53375331D01*
X238452229Y-53426127D01*
X238384408Y-53442922D01*
X238318273Y-53420384D01*
X238279234Y-53375331D01*
X238199358Y-53218567D01*
X238172268Y-53181283D01*
X237557647Y-53795904D01*
X237534208Y-53708429D01*
X237475689Y-53607070D01*
X237392930Y-53524311D01*
X237291571Y-53465792D01*
X237204094Y-53442352D01*
X237818716Y-52827731D01*
X237818715Y-52827730D01*
X237781432Y-52800641D01*
X237604437Y-52710457D01*
X237415522Y-52649075D01*
X237219321Y-52618000D01*
X237020679Y-52618000D01*
X236824479Y-52649075D01*
X236824476Y-52649075D01*
X236635562Y-52710457D01*
X236458564Y-52800643D01*
X236421283Y-52827729D01*
X236421282Y-52827730D01*
X237035906Y-53442352D01*
X236948429Y-53465792D01*
X236847070Y-53524311D01*
X236764311Y-53607070D01*
X236705792Y-53708429D01*
X236682352Y-53795905D01*
X236067730Y-53181282D01*
X236067729Y-53181283D01*
X236040641Y-53218566D01*
X235960764Y-53375332D01*
X235912790Y-53426127D01*
X235844969Y-53442922D01*
X235778834Y-53420384D01*
X235739796Y-53375332D01*
X235659787Y-53218306D01*
X235542981Y-53057536D01*
X235402464Y-52917019D01*
X235241694Y-52800213D01*
X235064632Y-52709994D01*
X235064629Y-52709993D01*
X234875637Y-52648587D01*
X234777498Y-52633043D01*
X234679361Y-52617500D01*
X234480639Y-52617500D01*
X234415214Y-52627862D01*
X234284362Y-52648587D01*
X234095370Y-52709993D01*
X234095367Y-52709994D01*
X233918305Y-52800213D01*
X233757533Y-52917021D01*
X233617021Y-53057533D01*
X233500213Y-53218305D01*
X233420485Y-53374780D01*
X233372510Y-53425576D01*
X233304689Y-53442371D01*
X233238554Y-53419833D01*
X233199515Y-53374780D01*
X233180179Y-53336832D01*
X233119787Y-53218306D01*
X233002981Y-53057536D01*
X232862464Y-52917019D01*
X232701694Y-52800213D01*
X232524632Y-52709994D01*
X232524629Y-52709993D01*
X232335637Y-52648587D01*
X232237498Y-52633043D01*
X232139361Y-52617500D01*
X231940639Y-52617500D01*
X231875214Y-52627862D01*
X231744362Y-52648587D01*
X231555370Y-52709993D01*
X231555367Y-52709994D01*
X231378305Y-52800213D01*
X231217533Y-52917021D01*
X231077021Y-53057533D01*
X230960213Y-53218305D01*
X230880485Y-53374780D01*
X230832510Y-53425576D01*
X230764689Y-53442371D01*
X230698554Y-53419833D01*
X230659515Y-53374780D01*
X230640179Y-53336832D01*
X230579787Y-53218306D01*
X230462981Y-53057536D01*
X230322464Y-52917019D01*
X230161694Y-52800213D01*
X229984632Y-52709994D01*
X229984629Y-52709993D01*
X229795637Y-52648587D01*
X229697498Y-52633043D01*
X229599361Y-52617500D01*
X229400639Y-52617500D01*
X229335214Y-52627862D01*
X229204362Y-52648587D01*
X229015370Y-52709993D01*
X229015367Y-52709994D01*
X228838305Y-52800213D01*
X228677533Y-52917021D01*
X228537021Y-53057533D01*
X228420213Y-53218305D01*
X228340485Y-53374780D01*
X228292510Y-53425576D01*
X228224689Y-53442371D01*
X228158554Y-53419833D01*
X228119515Y-53374780D01*
X228100179Y-53336832D01*
X228039787Y-53218306D01*
X227922981Y-53057536D01*
X227782464Y-52917019D01*
X227621694Y-52800213D01*
X227444632Y-52709994D01*
X227444629Y-52709993D01*
X227255637Y-52648587D01*
X227157498Y-52633043D01*
X227059361Y-52617500D01*
X226860639Y-52617500D01*
X226795214Y-52627862D01*
X226664362Y-52648587D01*
X226475370Y-52709993D01*
X226475367Y-52709994D01*
X226298305Y-52800213D01*
X226137533Y-52917021D01*
X225997021Y-53057533D01*
X225880213Y-53218305D01*
X225800485Y-53374780D01*
X225752510Y-53425576D01*
X225684689Y-53442371D01*
X225618554Y-53419833D01*
X225579515Y-53374780D01*
X225560179Y-53336832D01*
X225499787Y-53218306D01*
X225382981Y-53057536D01*
X225242464Y-52917019D01*
X225081694Y-52800213D01*
X224904632Y-52709994D01*
X224904629Y-52709993D01*
X224715637Y-52648587D01*
X224617498Y-52633043D01*
X224519361Y-52617500D01*
X224320639Y-52617500D01*
X224255214Y-52627862D01*
X224124362Y-52648587D01*
X223935370Y-52709993D01*
X223935367Y-52709994D01*
X223758305Y-52800213D01*
X223597533Y-52917021D01*
X223457021Y-53057533D01*
X223340213Y-53218305D01*
X223249994Y-53395367D01*
X223249993Y-53395370D01*
X223188587Y-53584362D01*
X223157500Y-53780639D01*
X223157500Y-53979360D01*
X223188587Y-54175637D01*
X223249993Y-54364629D01*
X223249994Y-54364632D01*
X223287526Y-54438291D01*
X223340213Y-54541694D01*
X223457019Y-54702464D01*
X223597536Y-54842981D01*
X223758306Y-54959787D01*
X223845149Y-55004035D01*
X223935367Y-55050005D01*
X223935370Y-55050006D01*
X224029866Y-55080709D01*
X224124364Y-55111413D01*
X224320639Y-55142500D01*
X224320640Y-55142500D01*
X224519360Y-55142500D01*
X224519361Y-55142500D01*
X224715636Y-55111413D01*
X224904632Y-55050005D01*
X225081694Y-54959787D01*
X225242464Y-54842981D01*
X225382981Y-54702464D01*
X225499787Y-54541694D01*
X225579515Y-54385218D01*
X225627490Y-54334423D01*
X225695311Y-54317628D01*
X225761446Y-54340165D01*
X225800484Y-54385218D01*
X225880213Y-54541694D01*
X225997019Y-54702464D01*
X226137536Y-54842981D01*
X226298306Y-54959787D01*
X226385149Y-55004035D01*
X226475367Y-55050005D01*
X226475370Y-55050006D01*
X226569866Y-55080709D01*
X226664364Y-55111413D01*
X226860639Y-55142500D01*
X226860640Y-55142500D01*
X227059360Y-55142500D01*
X227059361Y-55142500D01*
X227255636Y-55111413D01*
X227444632Y-55050005D01*
X227621694Y-54959787D01*
X227782464Y-54842981D01*
X227922981Y-54702464D01*
X228039787Y-54541694D01*
X228119515Y-54385218D01*
X228167490Y-54334423D01*
X228235311Y-54317628D01*
X228301446Y-54340165D01*
X228340484Y-54385218D01*
X228420213Y-54541694D01*
X228537019Y-54702464D01*
X228677536Y-54842981D01*
X228838306Y-54959787D01*
X228925149Y-55004035D01*
X229015367Y-55050005D01*
X229015370Y-55050006D01*
X229109866Y-55080709D01*
X229204364Y-55111413D01*
X229400639Y-55142500D01*
X229400640Y-55142500D01*
X229599360Y-55142500D01*
X229599361Y-55142500D01*
X229795636Y-55111413D01*
X229984632Y-55050005D01*
X230161694Y-54959787D01*
X230322464Y-54842981D01*
X230462981Y-54702464D01*
X230579787Y-54541694D01*
X230659515Y-54385218D01*
X230707490Y-54334423D01*
X230775311Y-54317628D01*
X230841446Y-54340165D01*
X230880484Y-54385218D01*
X230960213Y-54541694D01*
X231077019Y-54702464D01*
X231217536Y-54842981D01*
X231378306Y-54959787D01*
X231465149Y-55004035D01*
X231555367Y-55050005D01*
X231555370Y-55050006D01*
X231649866Y-55080709D01*
X231744364Y-55111413D01*
X231940639Y-55142500D01*
X231940640Y-55142500D01*
X232139355Y-55142500D01*
X232139361Y-55142500D01*
X232153228Y-55140303D01*
X232222516Y-55149256D01*
X232275970Y-55194250D01*
X232296612Y-55261001D01*
X232277889Y-55328315D01*
X232260306Y-55350457D01*
X219797895Y-67812868D01*
X219736572Y-67846353D01*
X219666880Y-67841369D01*
X219610948Y-67799498D01*
X219607547Y-67794955D01*
X219607544Y-67794952D01*
X219492335Y-67708706D01*
X219492328Y-67708702D01*
X219357482Y-67658408D01*
X219357483Y-67658408D01*
X219297883Y-67652001D01*
X219297881Y-67652000D01*
X219297873Y-67652000D01*
X219297864Y-67652000D01*
X217702129Y-67652000D01*
X217702123Y-67652001D01*
X217642516Y-67658408D01*
X217507671Y-67708702D01*
X217507664Y-67708706D01*
X217392455Y-67794952D01*
X217392452Y-67794955D01*
X217306206Y-67910164D01*
X217306202Y-67910171D01*
X217255908Y-68045017D01*
X217249501Y-68104616D01*
X217249500Y-68104635D01*
X217249500Y-68168232D01*
X217229815Y-68235271D01*
X217177011Y-68281026D01*
X217107853Y-68290970D01*
X217044297Y-68261945D01*
X217025182Y-68241118D01*
X216926006Y-68104616D01*
X216913828Y-68087854D01*
X216774646Y-67948672D01*
X216615405Y-67832976D01*
X216575941Y-67812868D01*
X216440029Y-67743617D01*
X216252826Y-67682790D01*
X216058422Y-67652000D01*
X216058417Y-67652000D01*
X215861583Y-67652000D01*
X215861578Y-67652000D01*
X215667173Y-67682790D01*
X215479970Y-67743617D01*
X215304594Y-67832976D01*
X215228053Y-67888587D01*
X215145354Y-67948672D01*
X215145352Y-67948674D01*
X215145351Y-67948674D01*
X215006174Y-68087851D01*
X215006174Y-68087852D01*
X215006172Y-68087854D01*
X214993994Y-68104616D01*
X214890476Y-68247094D01*
X214800485Y-68423713D01*
X214752511Y-68474509D01*
X214684690Y-68491304D01*
X214618555Y-68468767D01*
X214579515Y-68423713D01*
X214511879Y-68290970D01*
X214489524Y-68247095D01*
X214373828Y-68087854D01*
X214234646Y-67948672D01*
X214075405Y-67832976D01*
X214035941Y-67812868D01*
X213900029Y-67743617D01*
X213712826Y-67682790D01*
X213518422Y-67652000D01*
X213518417Y-67652000D01*
X213321583Y-67652000D01*
X213321578Y-67652000D01*
X213127173Y-67682790D01*
X212939970Y-67743617D01*
X212764594Y-67832976D01*
X212688053Y-67888587D01*
X212605354Y-67948672D01*
X212605352Y-67948674D01*
X212605351Y-67948674D01*
X212466174Y-68087851D01*
X212466174Y-68087852D01*
X212466172Y-68087854D01*
X212453994Y-68104616D01*
X212350476Y-68247094D01*
X212260204Y-68424264D01*
X212212229Y-68475060D01*
X212144408Y-68491855D01*
X212078274Y-68469318D01*
X212039234Y-68424264D01*
X211949096Y-68247358D01*
X211923678Y-68212373D01*
X211923677Y-68212373D01*
X211280000Y-68856051D01*
X211280000Y-68849839D01*
X211252741Y-68748106D01*
X211200080Y-68656894D01*
X211125606Y-68582420D01*
X211034394Y-68529759D01*
X210932661Y-68502500D01*
X210926447Y-68502500D01*
X211570125Y-67858820D01*
X211570125Y-67858819D01*
X211535145Y-67833405D01*
X211359835Y-67744081D01*
X211172705Y-67683278D01*
X210978382Y-67652500D01*
X210781618Y-67652500D01*
X210587294Y-67683278D01*
X210400161Y-67744082D01*
X210224863Y-67833399D01*
X210224859Y-67833402D01*
X210189873Y-67858820D01*
X210189872Y-67858820D01*
X210833554Y-68502500D01*
X210827339Y-68502500D01*
X210725606Y-68529759D01*
X210634394Y-68582420D01*
X210559920Y-68656894D01*
X210507259Y-68748106D01*
X210480000Y-68849839D01*
X210480000Y-68856052D01*
X209836320Y-68212372D01*
X209836320Y-68212373D01*
X209810902Y-68247359D01*
X209810899Y-68247363D01*
X209721582Y-68422661D01*
X209660778Y-68609794D01*
X209630000Y-68804117D01*
X209630000Y-69000882D01*
X209655897Y-69164390D01*
X209646942Y-69233684D01*
X209601946Y-69287136D01*
X209552823Y-69306261D01*
X209408880Y-69329060D01*
X209229163Y-69387454D01*
X209060800Y-69473240D01*
X209039080Y-69489021D01*
X208907927Y-69584310D01*
X208907925Y-69584312D01*
X208907924Y-69584312D01*
X208774312Y-69717924D01*
X208774312Y-69717925D01*
X208774310Y-69717927D01*
X208724818Y-69786047D01*
X208669488Y-69828712D01*
X208599874Y-69834691D01*
X208538079Y-69802085D01*
X208503722Y-69741246D01*
X208500500Y-69713161D01*
X208500500Y-50123149D01*
X211599500Y-50123149D01*
X211599500Y-50378850D01*
X211609853Y-50457482D01*
X211632874Y-50632340D01*
X211691330Y-50850500D01*
X211699050Y-50879312D01*
X211699053Y-50879322D01*
X211796894Y-51115531D01*
X211796899Y-51115542D01*
X211924734Y-51336957D01*
X211924745Y-51336973D01*
X212080388Y-51539811D01*
X212080394Y-51539818D01*
X212261181Y-51720605D01*
X212261187Y-51720610D01*
X212464035Y-51876261D01*
X212464042Y-51876265D01*
X212685457Y-52004100D01*
X212685462Y-52004102D01*
X212685465Y-52004104D01*
X212921687Y-52101950D01*
X213168660Y-52168126D01*
X213422157Y-52201500D01*
X213422164Y-52201500D01*
X214577836Y-52201500D01*
X214577843Y-52201500D01*
X214831340Y-52168126D01*
X215078313Y-52101950D01*
X215314535Y-52004104D01*
X215535965Y-51876261D01*
X215738813Y-51720610D01*
X215919610Y-51539813D01*
X216075261Y-51336965D01*
X216203104Y-51115535D01*
X216300950Y-50879313D01*
X216367126Y-50632340D01*
X216400500Y-50378843D01*
X216400500Y-50123157D01*
X216367126Y-49869660D01*
X216300950Y-49622687D01*
X216294157Y-49606286D01*
X216223744Y-49436294D01*
X216223743Y-49436292D01*
X216206106Y-49393713D01*
X221109500Y-49393713D01*
X221109500Y-49606287D01*
X221142754Y-49816243D01*
X221160110Y-49869660D01*
X221208444Y-50018414D01*
X221304951Y-50207820D01*
X221429890Y-50379786D01*
X221580213Y-50530109D01*
X221752179Y-50655048D01*
X221752181Y-50655049D01*
X221752184Y-50655051D01*
X221941588Y-50751557D01*
X222143757Y-50817246D01*
X222353713Y-50850500D01*
X222353714Y-50850500D01*
X222566286Y-50850500D01*
X222566287Y-50850500D01*
X222776243Y-50817246D01*
X222978412Y-50751557D01*
X223167816Y-50655051D01*
X223254138Y-50592335D01*
X223339786Y-50530109D01*
X223339788Y-50530106D01*
X223339792Y-50530104D01*
X223490104Y-50379792D01*
X223490106Y-50379788D01*
X223490109Y-50379786D01*
X223615048Y-50207820D01*
X223615047Y-50207820D01*
X223615051Y-50207816D01*
X223619514Y-50199054D01*
X223667488Y-50148259D01*
X223735308Y-50131463D01*
X223801444Y-50153999D01*
X223840486Y-50199056D01*
X223844951Y-50207820D01*
X223969890Y-50379786D01*
X224120213Y-50530109D01*
X224292179Y-50655048D01*
X224292181Y-50655049D01*
X224292184Y-50655051D01*
X224481588Y-50751557D01*
X224683757Y-50817246D01*
X224893713Y-50850500D01*
X224893714Y-50850500D01*
X225106286Y-50850500D01*
X225106287Y-50850500D01*
X225316243Y-50817246D01*
X225518412Y-50751557D01*
X225707816Y-50655051D01*
X225794138Y-50592335D01*
X225879786Y-50530109D01*
X225879788Y-50530106D01*
X225879792Y-50530104D01*
X226030104Y-50379792D01*
X226030106Y-50379788D01*
X226030109Y-50379786D01*
X226155048Y-50207820D01*
X226155047Y-50207820D01*
X226155051Y-50207816D01*
X226159514Y-50199054D01*
X226207488Y-50148259D01*
X226275308Y-50131463D01*
X226341444Y-50153999D01*
X226380486Y-50199056D01*
X226384951Y-50207820D01*
X226509890Y-50379786D01*
X226660213Y-50530109D01*
X226832179Y-50655048D01*
X226832181Y-50655049D01*
X226832184Y-50655051D01*
X227021588Y-50751557D01*
X227223757Y-50817246D01*
X227433713Y-50850500D01*
X227433714Y-50850500D01*
X227646286Y-50850500D01*
X227646287Y-50850500D01*
X227856243Y-50817246D01*
X228058412Y-50751557D01*
X228247816Y-50655051D01*
X228334138Y-50592335D01*
X228419786Y-50530109D01*
X228419788Y-50530106D01*
X228419792Y-50530104D01*
X228570104Y-50379792D01*
X228570106Y-50379788D01*
X228570109Y-50379786D01*
X228695048Y-50207820D01*
X228695047Y-50207820D01*
X228695051Y-50207816D01*
X228699514Y-50199054D01*
X228747488Y-50148259D01*
X228815308Y-50131463D01*
X228881444Y-50153999D01*
X228920486Y-50199056D01*
X228924951Y-50207820D01*
X229049890Y-50379786D01*
X229200213Y-50530109D01*
X229372179Y-50655048D01*
X229372181Y-50655049D01*
X229372184Y-50655051D01*
X229561588Y-50751557D01*
X229763757Y-50817246D01*
X229973713Y-50850500D01*
X229973714Y-50850500D01*
X230186286Y-50850500D01*
X230186287Y-50850500D01*
X230396243Y-50817246D01*
X230598412Y-50751557D01*
X230787816Y-50655051D01*
X230874138Y-50592335D01*
X230959786Y-50530109D01*
X230959788Y-50530106D01*
X230959792Y-50530104D01*
X231110104Y-50379792D01*
X231110106Y-50379788D01*
X231110109Y-50379786D01*
X231235048Y-50207820D01*
X231235047Y-50207820D01*
X231235051Y-50207816D01*
X231239514Y-50199054D01*
X231287488Y-50148259D01*
X231355308Y-50131463D01*
X231421444Y-50153999D01*
X231460486Y-50199056D01*
X231464951Y-50207820D01*
X231589890Y-50379786D01*
X231740213Y-50530109D01*
X231912179Y-50655048D01*
X231912181Y-50655049D01*
X231912184Y-50655051D01*
X232101588Y-50751557D01*
X232303757Y-50817246D01*
X232513713Y-50850500D01*
X232513714Y-50850500D01*
X232726286Y-50850500D01*
X232726287Y-50850500D01*
X232936243Y-50817246D01*
X233138412Y-50751557D01*
X233327816Y-50655051D01*
X233414138Y-50592335D01*
X233499786Y-50530109D01*
X233499788Y-50530106D01*
X233499792Y-50530104D01*
X233650104Y-50379792D01*
X233650106Y-50379788D01*
X233650109Y-50379786D01*
X233775048Y-50207820D01*
X233775047Y-50207820D01*
X233775051Y-50207816D01*
X233779514Y-50199054D01*
X233827488Y-50148259D01*
X233895308Y-50131463D01*
X233961444Y-50153999D01*
X234000486Y-50199056D01*
X234004951Y-50207820D01*
X234129890Y-50379786D01*
X234280213Y-50530109D01*
X234452179Y-50655048D01*
X234452181Y-50655049D01*
X234452184Y-50655051D01*
X234641588Y-50751557D01*
X234843757Y-50817246D01*
X235053713Y-50850500D01*
X235053714Y-50850500D01*
X235266286Y-50850500D01*
X235266287Y-50850500D01*
X235476243Y-50817246D01*
X235678412Y-50751557D01*
X235867816Y-50655051D01*
X235954138Y-50592335D01*
X236039786Y-50530109D01*
X236039788Y-50530106D01*
X236039792Y-50530104D01*
X236190104Y-50379792D01*
X236190106Y-50379788D01*
X236190109Y-50379786D01*
X236257515Y-50287007D01*
X236315051Y-50207816D01*
X236319793Y-50198508D01*
X236367763Y-50147711D01*
X236435583Y-50130911D01*
X236501719Y-50153445D01*
X236540763Y-50198500D01*
X236545373Y-50207547D01*
X236584728Y-50261716D01*
X237217037Y-49629408D01*
X237234075Y-49692993D01*
X237299901Y-49807007D01*
X237392993Y-49900099D01*
X237507007Y-49965925D01*
X237570590Y-49982962D01*
X236938282Y-50615269D01*
X236938282Y-50615270D01*
X236992449Y-50654624D01*
X237181782Y-50751095D01*
X237383870Y-50816757D01*
X237593754Y-50850000D01*
X237806246Y-50850000D01*
X238016127Y-50816757D01*
X238016130Y-50816757D01*
X238218217Y-50751095D01*
X238407554Y-50654622D01*
X238461716Y-50615270D01*
X238461717Y-50615270D01*
X237829408Y-49982962D01*
X237892993Y-49965925D01*
X238007007Y-49900099D01*
X238100099Y-49807007D01*
X238165925Y-49692993D01*
X238182962Y-49629408D01*
X238853181Y-50299628D01*
X238886666Y-50360951D01*
X238889500Y-50387300D01*
X238889500Y-50397865D01*
X238889501Y-50397876D01*
X238895908Y-50457483D01*
X238946202Y-50592328D01*
X238946206Y-50592335D01*
X239032452Y-50707544D01*
X239032455Y-50707547D01*
X239147664Y-50793793D01*
X239147671Y-50793797D01*
X239282517Y-50844091D01*
X239282516Y-50844091D01*
X239289444Y-50844835D01*
X239342127Y-50850500D01*
X241137872Y-50850499D01*
X241197483Y-50844091D01*
X241332331Y-50793796D01*
X241447546Y-50707546D01*
X241533796Y-50592331D01*
X241584091Y-50457483D01*
X241590500Y-50397873D01*
X241590499Y-48602128D01*
X241584091Y-48542517D01*
X241572070Y-48510288D01*
X241533797Y-48407671D01*
X241533793Y-48407664D01*
X241447547Y-48292455D01*
X241447544Y-48292452D01*
X241332335Y-48206206D01*
X241332328Y-48206202D01*
X241197482Y-48155908D01*
X241197483Y-48155908D01*
X241137883Y-48149501D01*
X241137881Y-48149500D01*
X241137873Y-48149500D01*
X241137864Y-48149500D01*
X239342129Y-48149500D01*
X239342123Y-48149501D01*
X239282516Y-48155908D01*
X239147671Y-48206202D01*
X239147664Y-48206206D01*
X239032455Y-48292452D01*
X239032452Y-48292455D01*
X238946206Y-48407664D01*
X238946202Y-48407671D01*
X238895908Y-48542517D01*
X238889501Y-48602116D01*
X238889501Y-48602123D01*
X238889500Y-48602135D01*
X238889500Y-48612690D01*
X238869815Y-48679729D01*
X238853181Y-48700371D01*
X238182962Y-49370590D01*
X238165925Y-49307007D01*
X238100099Y-49192993D01*
X238007007Y-49099901D01*
X237892993Y-49034075D01*
X237829409Y-49017037D01*
X238461716Y-48384728D01*
X238407550Y-48345375D01*
X238218217Y-48248904D01*
X238016129Y-48183242D01*
X237806246Y-48150000D01*
X237593754Y-48150000D01*
X237383872Y-48183242D01*
X237383869Y-48183242D01*
X237181782Y-48248904D01*
X236992439Y-48345380D01*
X236938282Y-48384727D01*
X236938282Y-48384728D01*
X237570591Y-49017037D01*
X237507007Y-49034075D01*
X237392993Y-49099901D01*
X237299901Y-49192993D01*
X237234075Y-49307007D01*
X237217037Y-49370591D01*
X236584728Y-48738282D01*
X236584727Y-48738282D01*
X236545380Y-48792440D01*
X236545376Y-48792446D01*
X236540760Y-48801505D01*
X236492781Y-48852297D01*
X236424959Y-48869087D01*
X236358826Y-48846543D01*
X236319794Y-48801493D01*
X236315051Y-48792184D01*
X236315049Y-48792181D01*
X236315048Y-48792179D01*
X236190109Y-48620213D01*
X236039786Y-48469890D01*
X235867820Y-48344951D01*
X235678414Y-48248444D01*
X235678413Y-48248443D01*
X235678412Y-48248443D01*
X235476243Y-48182754D01*
X235476241Y-48182753D01*
X235476240Y-48182753D01*
X235314957Y-48157208D01*
X235266287Y-48149500D01*
X235053713Y-48149500D01*
X235005042Y-48157208D01*
X234843760Y-48182753D01*
X234742672Y-48215598D01*
X234687612Y-48233489D01*
X234641585Y-48248444D01*
X234452179Y-48344951D01*
X234280213Y-48469890D01*
X234129890Y-48620213D01*
X234004949Y-48792182D01*
X234000484Y-48800946D01*
X233952509Y-48851742D01*
X233884688Y-48868536D01*
X233818553Y-48845998D01*
X233779516Y-48800946D01*
X233775050Y-48792182D01*
X233650109Y-48620213D01*
X233499786Y-48469890D01*
X233327820Y-48344951D01*
X233138414Y-48248444D01*
X233138413Y-48248443D01*
X233138412Y-48248443D01*
X232936243Y-48182754D01*
X232936241Y-48182753D01*
X232936240Y-48182753D01*
X232774957Y-48157208D01*
X232726287Y-48149500D01*
X232513713Y-48149500D01*
X232465042Y-48157208D01*
X232303760Y-48182753D01*
X232202672Y-48215598D01*
X232147612Y-48233489D01*
X232101585Y-48248444D01*
X231912179Y-48344951D01*
X231740213Y-48469890D01*
X231589890Y-48620213D01*
X231464949Y-48792182D01*
X231460484Y-48800946D01*
X231412509Y-48851742D01*
X231344688Y-48868536D01*
X231278553Y-48845998D01*
X231239516Y-48800946D01*
X231235050Y-48792182D01*
X231110109Y-48620213D01*
X230959786Y-48469890D01*
X230787820Y-48344951D01*
X230598414Y-48248444D01*
X230598413Y-48248443D01*
X230598412Y-48248443D01*
X230396243Y-48182754D01*
X230396241Y-48182753D01*
X230396240Y-48182753D01*
X230234957Y-48157208D01*
X230186287Y-48149500D01*
X229973713Y-48149500D01*
X229925042Y-48157208D01*
X229763760Y-48182753D01*
X229662672Y-48215598D01*
X229607612Y-48233489D01*
X229561585Y-48248444D01*
X229372179Y-48344951D01*
X229200213Y-48469890D01*
X229049890Y-48620213D01*
X228924949Y-48792182D01*
X228920484Y-48800946D01*
X228872509Y-48851742D01*
X228804688Y-48868536D01*
X228738553Y-48845998D01*
X228699516Y-48800946D01*
X228695050Y-48792182D01*
X228570109Y-48620213D01*
X228419786Y-48469890D01*
X228247820Y-48344951D01*
X228058414Y-48248444D01*
X228058413Y-48248443D01*
X228058412Y-48248443D01*
X227856243Y-48182754D01*
X227856241Y-48182753D01*
X227856240Y-48182753D01*
X227694957Y-48157208D01*
X227646287Y-48149500D01*
X227433713Y-48149500D01*
X227385042Y-48157208D01*
X227223760Y-48182753D01*
X227122672Y-48215598D01*
X227067612Y-48233489D01*
X227021585Y-48248444D01*
X226832179Y-48344951D01*
X226660213Y-48469890D01*
X226509890Y-48620213D01*
X226384949Y-48792182D01*
X226380484Y-48800946D01*
X226332509Y-48851742D01*
X226264688Y-48868536D01*
X226198553Y-48845998D01*
X226159516Y-48800946D01*
X226155050Y-48792182D01*
X226030109Y-48620213D01*
X225879786Y-48469890D01*
X225707820Y-48344951D01*
X225518414Y-48248444D01*
X225518413Y-48248443D01*
X225518412Y-48248443D01*
X225316243Y-48182754D01*
X225316241Y-48182753D01*
X225316240Y-48182753D01*
X225154957Y-48157208D01*
X225106287Y-48149500D01*
X224893713Y-48149500D01*
X224845042Y-48157208D01*
X224683760Y-48182753D01*
X224582672Y-48215598D01*
X224527612Y-48233489D01*
X224481585Y-48248444D01*
X224292179Y-48344951D01*
X224120213Y-48469890D01*
X223969890Y-48620213D01*
X223844949Y-48792182D01*
X223840484Y-48800946D01*
X223792509Y-48851742D01*
X223724688Y-48868536D01*
X223658553Y-48845998D01*
X223619516Y-48800946D01*
X223615050Y-48792182D01*
X223490109Y-48620213D01*
X223339786Y-48469890D01*
X223167820Y-48344951D01*
X222978414Y-48248444D01*
X222978413Y-48248443D01*
X222978412Y-48248443D01*
X222776243Y-48182754D01*
X222776241Y-48182753D01*
X222776240Y-48182753D01*
X222614957Y-48157208D01*
X222566287Y-48149500D01*
X222353713Y-48149500D01*
X222305042Y-48157208D01*
X222143760Y-48182753D01*
X222042672Y-48215598D01*
X221987612Y-48233489D01*
X221941585Y-48248444D01*
X221752179Y-48344951D01*
X221580213Y-48469890D01*
X221429890Y-48620213D01*
X221304951Y-48792179D01*
X221208444Y-48981585D01*
X221142753Y-49183760D01*
X221110647Y-49386474D01*
X221109500Y-49393713D01*
X216206106Y-49393713D01*
X216203108Y-49386474D01*
X216203100Y-49386457D01*
X216075265Y-49165042D01*
X216075261Y-49165035D01*
X215919610Y-48962187D01*
X215919605Y-48962181D01*
X215738818Y-48781394D01*
X215738811Y-48781388D01*
X215535973Y-48625745D01*
X215535971Y-48625743D01*
X215535965Y-48625739D01*
X215535960Y-48625736D01*
X215535957Y-48625734D01*
X215314542Y-48497899D01*
X215314531Y-48497894D01*
X215078322Y-48400053D01*
X215078315Y-48400051D01*
X215078313Y-48400050D01*
X214831340Y-48333874D01*
X214775007Y-48326457D01*
X214577850Y-48300500D01*
X214577843Y-48300500D01*
X213422157Y-48300500D01*
X213422149Y-48300500D01*
X213196826Y-48330165D01*
X213168660Y-48333874D01*
X212978870Y-48384728D01*
X212921687Y-48400050D01*
X212921677Y-48400053D01*
X212685468Y-48497894D01*
X212685457Y-48497899D01*
X212464042Y-48625734D01*
X212464026Y-48625745D01*
X212261188Y-48781388D01*
X212261181Y-48781394D01*
X212080394Y-48962181D01*
X212080388Y-48962188D01*
X211924745Y-49165026D01*
X211924734Y-49165042D01*
X211796899Y-49386457D01*
X211796894Y-49386468D01*
X211699053Y-49622677D01*
X211699050Y-49622687D01*
X211632874Y-49869661D01*
X211599500Y-50123149D01*
X208500500Y-50123149D01*
X208500500Y-37334038D01*
X208819500Y-37334038D01*
X208819500Y-37585961D01*
X208858910Y-37834785D01*
X208936760Y-38074383D01*
X209051132Y-38298848D01*
X209199201Y-38502649D01*
X209199205Y-38502654D01*
X209377345Y-38680794D01*
X209377350Y-38680798D01*
X209555117Y-38809952D01*
X209581155Y-38828870D01*
X209724184Y-38901747D01*
X209805616Y-38943239D01*
X209805618Y-38943239D01*
X209805621Y-38943241D01*
X210045215Y-39021090D01*
X210294038Y-39060500D01*
X210336501Y-39060500D01*
X210403540Y-39080185D01*
X210424182Y-39096819D01*
X213352464Y-42025101D01*
X213385949Y-42086424D01*
X213380965Y-42156116D01*
X213339093Y-42212049D01*
X213273629Y-42236466D01*
X213245385Y-42235255D01*
X213085928Y-42210000D01*
X212834072Y-42210000D01*
X212585330Y-42249397D01*
X212345815Y-42327219D01*
X212121413Y-42441559D01*
X212019301Y-42515747D01*
X212019300Y-42515748D01*
X212635974Y-43132421D01*
X212604742Y-43145359D01*
X212481903Y-43227437D01*
X212377437Y-43331903D01*
X212295359Y-43454742D01*
X212282421Y-43485974D01*
X211665748Y-42869300D01*
X211665747Y-42869301D01*
X211591559Y-42971413D01*
X211477219Y-43195815D01*
X211399397Y-43435330D01*
X211360000Y-43684071D01*
X211360000Y-43935928D01*
X211399397Y-44184669D01*
X211477219Y-44424184D01*
X211591557Y-44648583D01*
X211665748Y-44750697D01*
X211665748Y-44750698D01*
X212282421Y-44134024D01*
X212295359Y-44165258D01*
X212377437Y-44288097D01*
X212481903Y-44392563D01*
X212604742Y-44474641D01*
X212635974Y-44487577D01*
X212019300Y-45104250D01*
X212121416Y-45178442D01*
X212345815Y-45292780D01*
X212585330Y-45370602D01*
X212834072Y-45410000D01*
X213085928Y-45410000D01*
X213334669Y-45370602D01*
X213574184Y-45292780D01*
X213798575Y-45178446D01*
X213798581Y-45178442D01*
X213900697Y-45104250D01*
X213900698Y-45104250D01*
X213284025Y-44487578D01*
X213315258Y-44474641D01*
X213438097Y-44392563D01*
X213542563Y-44288097D01*
X213624641Y-44165258D01*
X213637578Y-44134024D01*
X214254250Y-44750697D01*
X214283448Y-44748400D01*
X214351825Y-44762764D01*
X214401582Y-44811816D01*
X214416921Y-44879981D01*
X214415651Y-44891415D01*
X214399500Y-44993389D01*
X214399500Y-45166611D01*
X214426598Y-45337701D01*
X214480127Y-45502445D01*
X214558768Y-45656788D01*
X214660586Y-45796928D01*
X214783072Y-45919414D01*
X214923212Y-46021232D01*
X215077555Y-46099873D01*
X215242299Y-46153402D01*
X215413389Y-46180500D01*
X215413390Y-46180500D01*
X215586610Y-46180500D01*
X215586611Y-46180500D01*
X215757701Y-46153402D01*
X215922445Y-46099873D01*
X216076788Y-46021232D01*
X216216928Y-45919414D01*
X216339414Y-45796928D01*
X216441232Y-45656788D01*
X216519873Y-45502445D01*
X216533351Y-45460961D01*
X216572788Y-45403287D01*
X216637147Y-45376089D01*
X216705993Y-45388004D01*
X216738963Y-45411600D01*
X218363181Y-47035818D01*
X218396666Y-47097141D01*
X218399500Y-47123499D01*
X218399500Y-47420234D01*
X218379815Y-47487273D01*
X218378602Y-47489125D01*
X218290609Y-47620814D01*
X218290602Y-47620827D01*
X218230264Y-47766498D01*
X218230261Y-47766510D01*
X218199500Y-47921153D01*
X218199500Y-48078846D01*
X218230261Y-48233489D01*
X218230264Y-48233501D01*
X218290602Y-48379172D01*
X218290609Y-48379185D01*
X218378210Y-48510288D01*
X218378213Y-48510292D01*
X218489707Y-48621786D01*
X218489711Y-48621789D01*
X218620814Y-48709390D01*
X218620827Y-48709397D01*
X218690563Y-48738282D01*
X218766503Y-48769737D01*
X218921153Y-48800499D01*
X218921156Y-48800500D01*
X218921158Y-48800500D01*
X219078844Y-48800500D01*
X219078845Y-48800499D01*
X219233497Y-48769737D01*
X219379179Y-48709394D01*
X219431110Y-48674694D01*
X219497785Y-48653816D01*
X219565165Y-48672300D01*
X219568863Y-48674676D01*
X219620821Y-48709394D01*
X219620823Y-48709395D01*
X219620825Y-48709396D01*
X219690563Y-48738282D01*
X219766503Y-48769737D01*
X219921153Y-48800499D01*
X219921156Y-48800500D01*
X219921158Y-48800500D01*
X220078844Y-48800500D01*
X220078845Y-48800499D01*
X220233497Y-48769737D01*
X220379179Y-48709394D01*
X220510289Y-48621789D01*
X220621789Y-48510289D01*
X220709394Y-48379179D01*
X220769737Y-48233497D01*
X220800500Y-48078842D01*
X220800500Y-47921158D01*
X220800500Y-47921155D01*
X220800499Y-47921153D01*
X220769738Y-47766510D01*
X220769737Y-47766503D01*
X220769735Y-47766498D01*
X220711524Y-47625962D01*
X220704055Y-47556493D01*
X220735330Y-47494014D01*
X220738376Y-47490857D01*
X224545162Y-43684071D01*
X230860000Y-43684071D01*
X230860000Y-43935928D01*
X230899397Y-44184669D01*
X230977219Y-44424184D01*
X231091557Y-44648583D01*
X231165748Y-44750697D01*
X231165748Y-44750698D01*
X231782421Y-44134024D01*
X231795359Y-44165258D01*
X231877437Y-44288097D01*
X231981903Y-44392563D01*
X232104742Y-44474641D01*
X232135974Y-44487577D01*
X231519300Y-45104250D01*
X231621416Y-45178442D01*
X231845815Y-45292780D01*
X232085330Y-45370602D01*
X232334072Y-45410000D01*
X232585928Y-45410000D01*
X232834669Y-45370602D01*
X233074184Y-45292780D01*
X233298575Y-45178446D01*
X233298581Y-45178442D01*
X233400697Y-45104250D01*
X233400698Y-45104250D01*
X232784025Y-44487578D01*
X232815258Y-44474641D01*
X232938097Y-44392563D01*
X233042563Y-44288097D01*
X233124641Y-44165258D01*
X233137577Y-44134025D01*
X233754249Y-44750697D01*
X233783448Y-44748400D01*
X233851825Y-44762764D01*
X233901582Y-44811816D01*
X233916921Y-44879981D01*
X233915651Y-44891415D01*
X233899500Y-44993389D01*
X233899500Y-45166611D01*
X233926598Y-45337701D01*
X233980127Y-45502445D01*
X234058768Y-45656788D01*
X234160586Y-45796928D01*
X234283072Y-45919414D01*
X234423212Y-46021232D01*
X234577555Y-46099873D01*
X234742299Y-46153402D01*
X234913389Y-46180500D01*
X234913390Y-46180500D01*
X235086610Y-46180500D01*
X235086611Y-46180500D01*
X235257701Y-46153402D01*
X235422445Y-46099873D01*
X235576788Y-46021232D01*
X235716928Y-45919414D01*
X235839414Y-45796928D01*
X235941232Y-45656788D01*
X236019873Y-45502445D01*
X236073402Y-45337701D01*
X236100500Y-45166611D01*
X236100500Y-44993389D01*
X236073402Y-44822299D01*
X236019873Y-44657555D01*
X235941232Y-44503212D01*
X235839414Y-44363072D01*
X235716928Y-44240586D01*
X235576788Y-44138768D01*
X235422445Y-44060127D01*
X235257701Y-44006598D01*
X235257699Y-44006597D01*
X235257698Y-44006597D01*
X235126271Y-43985781D01*
X235086611Y-43979500D01*
X234913389Y-43979500D01*
X234873728Y-43985781D01*
X234742302Y-44006597D01*
X234577552Y-44060128D01*
X234423211Y-44138768D01*
X234343256Y-44196859D01*
X234283072Y-44240586D01*
X234283070Y-44240588D01*
X234283068Y-44240589D01*
X234230539Y-44293118D01*
X234169216Y-44326602D01*
X234099524Y-44321617D01*
X234043591Y-44279746D01*
X234019175Y-44214281D01*
X234020386Y-44186038D01*
X234060000Y-43935928D01*
X234060000Y-43684071D01*
X234020602Y-43435330D01*
X233942780Y-43195815D01*
X233828442Y-42971416D01*
X233754250Y-42869301D01*
X233754250Y-42869300D01*
X233137577Y-43485973D01*
X233124641Y-43454742D01*
X233042563Y-43331903D01*
X232938097Y-43227437D01*
X232815258Y-43145359D01*
X232784024Y-43132421D01*
X233400698Y-42515748D01*
X233298583Y-42441557D01*
X233074184Y-42327219D01*
X232834669Y-42249397D01*
X232585928Y-42210000D01*
X232334072Y-42210000D01*
X232085330Y-42249397D01*
X231845815Y-42327219D01*
X231621413Y-42441559D01*
X231519301Y-42515747D01*
X231519300Y-42515748D01*
X232135974Y-43132421D01*
X232104742Y-43145359D01*
X231981903Y-43227437D01*
X231877437Y-43331903D01*
X231795359Y-43454742D01*
X231782421Y-43485974D01*
X231165748Y-42869300D01*
X231165747Y-42869301D01*
X231091559Y-42971413D01*
X230977219Y-43195815D01*
X230899397Y-43435330D01*
X230860000Y-43684071D01*
X224545162Y-43684071D01*
X228376748Y-39852486D01*
X232749500Y-39852486D01*
X232749500Y-40147513D01*
X232781571Y-40391113D01*
X232788007Y-40439993D01*
X232788008Y-40439995D01*
X232864361Y-40724951D01*
X232864364Y-40724961D01*
X232977254Y-40997500D01*
X232977258Y-40997510D01*
X233124761Y-41252993D01*
X233304352Y-41487040D01*
X233304358Y-41487047D01*
X233512952Y-41695641D01*
X233512959Y-41695647D01*
X233747006Y-41875238D01*
X234002489Y-42022741D01*
X234002490Y-42022741D01*
X234002493Y-42022743D01*
X234275048Y-42135639D01*
X234560007Y-42211993D01*
X234852494Y-42250500D01*
X234852501Y-42250500D01*
X235147499Y-42250500D01*
X235147506Y-42250500D01*
X235439993Y-42211993D01*
X235724952Y-42135639D01*
X235997507Y-42022743D01*
X236252994Y-41875238D01*
X236487042Y-41695646D01*
X236695646Y-41487042D01*
X236875238Y-41252994D01*
X237022743Y-40997507D01*
X237135639Y-40724952D01*
X237211993Y-40439993D01*
X237250500Y-40147506D01*
X237250500Y-39852494D01*
X237211993Y-39560007D01*
X237135639Y-39275048D01*
X237022743Y-39002493D01*
X236999311Y-38961908D01*
X236875238Y-38747006D01*
X236695647Y-38512959D01*
X236695641Y-38512952D01*
X236487047Y-38304358D01*
X236487040Y-38304352D01*
X236252993Y-38124761D01*
X235997510Y-37977258D01*
X235997500Y-37977254D01*
X235724961Y-37864364D01*
X235724954Y-37864362D01*
X235724952Y-37864361D01*
X235439993Y-37788007D01*
X235391113Y-37781571D01*
X235147513Y-37749500D01*
X235147506Y-37749500D01*
X234852494Y-37749500D01*
X234852486Y-37749500D01*
X234574085Y-37786153D01*
X234560007Y-37788007D01*
X234385428Y-37834785D01*
X234275048Y-37864361D01*
X234275038Y-37864364D01*
X234002499Y-37977254D01*
X234002489Y-37977258D01*
X233747006Y-38124761D01*
X233512959Y-38304352D01*
X233512952Y-38304358D01*
X233304358Y-38512952D01*
X233304352Y-38512959D01*
X233124761Y-38747006D01*
X232977258Y-39002489D01*
X232977254Y-39002499D01*
X232864364Y-39275038D01*
X232864361Y-39275048D01*
X232788008Y-39560004D01*
X232788006Y-39560015D01*
X232749500Y-39852486D01*
X228376748Y-39852486D01*
X229237078Y-38992156D01*
X229298399Y-38958673D01*
X229363071Y-38961907D01*
X229508944Y-39009305D01*
X229545214Y-39021090D01*
X229669626Y-39040795D01*
X229794038Y-39060500D01*
X229794039Y-39060500D01*
X230045961Y-39060500D01*
X230045962Y-39060500D01*
X230294785Y-39021090D01*
X230534379Y-38943241D01*
X230758845Y-38828870D01*
X230962656Y-38680793D01*
X231140793Y-38502656D01*
X231288870Y-38298845D01*
X231403241Y-38074379D01*
X231481090Y-37834785D01*
X231520500Y-37585962D01*
X231520500Y-37334038D01*
X231481090Y-37085215D01*
X231403241Y-36845621D01*
X231403239Y-36845618D01*
X231403239Y-36845616D01*
X231361747Y-36764184D01*
X231288870Y-36621155D01*
X231269952Y-36595117D01*
X231140798Y-36417350D01*
X231140794Y-36417345D01*
X230962654Y-36239205D01*
X230962649Y-36239201D01*
X230758848Y-36091132D01*
X230758847Y-36091131D01*
X230758845Y-36091130D01*
X230688747Y-36055413D01*
X230534383Y-35976760D01*
X230294785Y-35898910D01*
X230045962Y-35859500D01*
X229794038Y-35859500D01*
X229669626Y-35879205D01*
X229545214Y-35898910D01*
X229305616Y-35976760D01*
X229081151Y-36091132D01*
X228877350Y-36239201D01*
X228877345Y-36239205D01*
X228699205Y-36417345D01*
X228699201Y-36417350D01*
X228551132Y-36621151D01*
X228436760Y-36845616D01*
X228358910Y-37085214D01*
X228319500Y-37334038D01*
X228319500Y-37585961D01*
X228358910Y-37834786D01*
X228358910Y-37834789D01*
X228418090Y-38016923D01*
X228420085Y-38086764D01*
X228387840Y-38142922D01*
X219791657Y-46739106D01*
X219730334Y-46772591D01*
X219660642Y-46767607D01*
X219604709Y-46725735D01*
X219584201Y-46683518D01*
X219559577Y-46591618D01*
X219559573Y-46591611D01*
X219480524Y-46454692D01*
X219480521Y-46454688D01*
X219480520Y-46454686D01*
X219368716Y-46342882D01*
X219368715Y-46342881D01*
X219364385Y-46338551D01*
X219364374Y-46338541D01*
X215488014Y-42462181D01*
X215454529Y-42400858D01*
X215459513Y-42331166D01*
X215501385Y-42275233D01*
X215566849Y-42250816D01*
X215575695Y-42250500D01*
X215647499Y-42250500D01*
X215647506Y-42250500D01*
X215939993Y-42211993D01*
X216224952Y-42135639D01*
X216497507Y-42022743D01*
X216752994Y-41875238D01*
X216987042Y-41695646D01*
X217195646Y-41487042D01*
X217375238Y-41252994D01*
X217522743Y-40997507D01*
X217635639Y-40724952D01*
X217711993Y-40439993D01*
X217750500Y-40147506D01*
X217750500Y-39852494D01*
X217711993Y-39560007D01*
X217635639Y-39275048D01*
X217522743Y-39002493D01*
X217499311Y-38961908D01*
X217375238Y-38747006D01*
X217195647Y-38512959D01*
X217195641Y-38512952D01*
X216987047Y-38304358D01*
X216987040Y-38304352D01*
X216752993Y-38124761D01*
X216497510Y-37977258D01*
X216497500Y-37977254D01*
X216224961Y-37864364D01*
X216224954Y-37864362D01*
X216224952Y-37864361D01*
X215939993Y-37788007D01*
X215891113Y-37781571D01*
X215647513Y-37749500D01*
X215647506Y-37749500D01*
X215352494Y-37749500D01*
X215352486Y-37749500D01*
X215074085Y-37786153D01*
X215060007Y-37788007D01*
X214885428Y-37834785D01*
X214775048Y-37864361D01*
X214775038Y-37864364D01*
X214502499Y-37977254D01*
X214502489Y-37977258D01*
X214247006Y-38124761D01*
X214012959Y-38304352D01*
X214012952Y-38304358D01*
X213804358Y-38512952D01*
X213804352Y-38512959D01*
X213624761Y-38747006D01*
X213477258Y-39002489D01*
X213477254Y-39002499D01*
X213364364Y-39275038D01*
X213364361Y-39275048D01*
X213288008Y-39560004D01*
X213288006Y-39560015D01*
X213249500Y-39852486D01*
X213249500Y-39924305D01*
X213229815Y-39991344D01*
X213177011Y-40037099D01*
X213107853Y-40047043D01*
X213044297Y-40018018D01*
X213037819Y-40011986D01*
X211668421Y-38642588D01*
X211634936Y-38581265D01*
X211639920Y-38511573D01*
X211655780Y-38482027D01*
X211788870Y-38298845D01*
X211903241Y-38074379D01*
X211981090Y-37834785D01*
X212020500Y-37585962D01*
X212020500Y-37334038D01*
X211981090Y-37085215D01*
X211903241Y-36845621D01*
X211903239Y-36845618D01*
X211903239Y-36845616D01*
X211861747Y-36764184D01*
X211788870Y-36621155D01*
X211769952Y-36595117D01*
X211640798Y-36417350D01*
X211640794Y-36417345D01*
X211462654Y-36239205D01*
X211462649Y-36239201D01*
X211258848Y-36091132D01*
X211258847Y-36091131D01*
X211258845Y-36091130D01*
X211188747Y-36055413D01*
X211034383Y-35976760D01*
X210794785Y-35898910D01*
X210545962Y-35859500D01*
X210294038Y-35859500D01*
X210169626Y-35879205D01*
X210045214Y-35898910D01*
X209805616Y-35976760D01*
X209581151Y-36091132D01*
X209377350Y-36239201D01*
X209377345Y-36239205D01*
X209199205Y-36417345D01*
X209199201Y-36417350D01*
X209051132Y-36621151D01*
X208936760Y-36845616D01*
X208858910Y-37085214D01*
X208819500Y-37334038D01*
X208500500Y-37334038D01*
X208500500Y-34833389D01*
X214399500Y-34833389D01*
X214399500Y-35006611D01*
X214426598Y-35177701D01*
X214480127Y-35342445D01*
X214558768Y-35496788D01*
X214660586Y-35636928D01*
X214783072Y-35759414D01*
X214923212Y-35861232D01*
X215077555Y-35939873D01*
X215242299Y-35993402D01*
X215413389Y-36020500D01*
X215413390Y-36020500D01*
X215586610Y-36020500D01*
X215586611Y-36020500D01*
X215757701Y-35993402D01*
X215922445Y-35939873D01*
X216076788Y-35861232D01*
X216216928Y-35759414D01*
X216339414Y-35636928D01*
X216441232Y-35496788D01*
X216519873Y-35342445D01*
X216573402Y-35177701D01*
X216600500Y-35006611D01*
X216600500Y-34833389D01*
X233899500Y-34833389D01*
X233899500Y-35006611D01*
X233926598Y-35177701D01*
X233980127Y-35342445D01*
X234058768Y-35496788D01*
X234160586Y-35636928D01*
X234283072Y-35759414D01*
X234423212Y-35861232D01*
X234577555Y-35939873D01*
X234742299Y-35993402D01*
X234913389Y-36020500D01*
X234913390Y-36020500D01*
X235086610Y-36020500D01*
X235086611Y-36020500D01*
X235257701Y-35993402D01*
X235422445Y-35939873D01*
X235576788Y-35861232D01*
X235716928Y-35759414D01*
X235839414Y-35636928D01*
X235941232Y-35496788D01*
X236019873Y-35342445D01*
X236073402Y-35177701D01*
X236100500Y-35006611D01*
X236100500Y-34833389D01*
X236073402Y-34662299D01*
X236019873Y-34497555D01*
X235941232Y-34343212D01*
X235839414Y-34203072D01*
X235716928Y-34080586D01*
X235576788Y-33978768D01*
X235422445Y-33900127D01*
X235257701Y-33846598D01*
X235257699Y-33846597D01*
X235257698Y-33846597D01*
X235126271Y-33825781D01*
X235086611Y-33819500D01*
X234913389Y-33819500D01*
X234873728Y-33825781D01*
X234742302Y-33846597D01*
X234577552Y-33900128D01*
X234423211Y-33978768D01*
X234343256Y-34036859D01*
X234283072Y-34080586D01*
X234283070Y-34080588D01*
X234283069Y-34080588D01*
X234160588Y-34203069D01*
X234160588Y-34203070D01*
X234160586Y-34203072D01*
X234116859Y-34263256D01*
X234058768Y-34343211D01*
X233980128Y-34497552D01*
X233926597Y-34662302D01*
X233899500Y-34833389D01*
X216600500Y-34833389D01*
X216573402Y-34662299D01*
X216519873Y-34497555D01*
X216441232Y-34343212D01*
X216339414Y-34203072D01*
X216216928Y-34080586D01*
X216076788Y-33978768D01*
X215922445Y-33900127D01*
X215757701Y-33846598D01*
X215757699Y-33846597D01*
X215757698Y-33846597D01*
X215626271Y-33825781D01*
X215586611Y-33819500D01*
X215413389Y-33819500D01*
X215373728Y-33825781D01*
X215242302Y-33846597D01*
X215077552Y-33900128D01*
X214923211Y-33978768D01*
X214843256Y-34036859D01*
X214783072Y-34080586D01*
X214783070Y-34080588D01*
X214783069Y-34080588D01*
X214660588Y-34203069D01*
X214660588Y-34203070D01*
X214660586Y-34203072D01*
X214616859Y-34263256D01*
X214558768Y-34343211D01*
X214480128Y-34497552D01*
X214426597Y-34662302D01*
X214399500Y-34833389D01*
X208500500Y-34833389D01*
X208500500Y-33124500D01*
X208520185Y-33057461D01*
X208572989Y-33011706D01*
X208624500Y-33000500D01*
X241875500Y-33000500D01*
X241942539Y-33020185D01*
G37*
%TD.AperFunction*%
%TD*%
M02*
