%TF.GenerationSoftware,KiCad,Pcbnew,10.0.6*%
%TF.CreationDate,2026-10-07T16:35:16+01:00*%
%TF.ProjectId,starbie,73746172-6269-4652-9e6b-696361645f70,rev?*%
%TF.SameCoordinates,Original*%
%TF.FileFunction,Legend,Top*%
%TF.FilePolarity,Positive*%
%FSLAX46Y46*%
G04 Gerber Fmt 4.6, Leading zero omitted, Abs format (unit mm)*
G04 Created by KiCad (PCBNEW 10.0.6) date 2026-10-07 16:35:16*
%MOMM*%
%LPD*%
G01*
G04 APERTURE LIST*
%ADD10C,0.000000*%
G04 APERTURE END LIST*
D10*
%TO.C,G\u002A\u002A\u002A*%
G36*
X209549474Y-65681454D02*
G01*
X209553020Y-65701828D01*
X209536878Y-65740279D01*
X209524129Y-65760525D01*
X209501898Y-65796878D01*
X209497074Y-65817763D01*
X209506323Y-65829219D01*
X209533845Y-65840908D01*
X209542677Y-65842232D01*
X209563891Y-65852407D01*
X209585277Y-65871662D01*
X209604669Y-65914343D01*
X209601303Y-65971654D01*
X209575851Y-66040242D01*
X209538976Y-66102539D01*
X209499892Y-66154824D01*
X209461264Y-66198149D01*
X209427019Y-66229141D01*
X209401087Y-66244427D01*
X209387394Y-66240636D01*
X209386216Y-66233705D01*
X209392299Y-66209933D01*
X209408700Y-66166641D01*
X209432647Y-66110784D01*
X209451613Y-66069624D01*
X209517010Y-65931569D01*
X209470072Y-65898801D01*
X209424346Y-65863060D01*
X209403810Y-65832861D01*
X209407767Y-65801107D01*
X209435520Y-65760701D01*
X209454388Y-65739129D01*
X209496788Y-65699070D01*
X209529606Y-65680190D01*
X209549474Y-65681454D01*
G37*
G36*
X240925825Y-63604179D02*
G01*
X240959007Y-63627342D01*
X240980135Y-63661208D01*
X240988004Y-63711590D01*
X240988217Y-63727022D01*
X240974248Y-63819601D01*
X240933043Y-63902208D01*
X240864305Y-63975228D01*
X240767736Y-64039043D01*
X240731141Y-64057472D01*
X240643918Y-64088230D01*
X240556695Y-64100172D01*
X240477600Y-64092750D01*
X240434763Y-64077468D01*
X240365882Y-64027264D01*
X240312314Y-63957039D01*
X240277942Y-63874007D01*
X240266651Y-63785382D01*
X240267557Y-63766967D01*
X240273069Y-63728969D01*
X240285131Y-63712250D01*
X240309067Y-63708563D01*
X240330850Y-63712615D01*
X240348625Y-63728759D01*
X240367232Y-63762974D01*
X240382904Y-63799798D01*
X240406552Y-63852197D01*
X240430920Y-63897127D01*
X240448127Y-63921629D01*
X240490005Y-63946366D01*
X240548518Y-63951603D01*
X240618276Y-63937518D01*
X240675179Y-63914159D01*
X240751752Y-63866999D01*
X240800683Y-63814734D01*
X240823717Y-63755181D01*
X240826100Y-63725483D01*
X240834290Y-63664623D01*
X240856250Y-63622192D01*
X240888067Y-63601081D01*
X240925825Y-63604179D01*
G37*
G36*
X209025911Y-63220934D02*
G01*
X209067714Y-63246244D01*
X209071584Y-63249489D01*
X209096642Y-63275384D01*
X209109013Y-63304365D01*
X209112887Y-63347996D01*
X209113018Y-63363937D01*
X209111101Y-63418726D01*
X209106230Y-63468663D01*
X209103026Y-63487051D01*
X209093033Y-63531354D01*
X209170069Y-63526475D01*
X209239456Y-63530981D01*
X209287791Y-63555294D01*
X209316718Y-63600320D01*
X209319474Y-63608883D01*
X209322337Y-63635259D01*
X209309704Y-63637572D01*
X209283245Y-63615793D01*
X209277387Y-63609579D01*
X209255479Y-63591373D01*
X209228442Y-63585621D01*
X209184964Y-63590093D01*
X209181398Y-63590668D01*
X209128915Y-63598009D01*
X209080633Y-63602830D01*
X209068716Y-63603509D01*
X209049593Y-63603452D01*
X209036563Y-63598614D01*
X209028889Y-63584549D01*
X209025832Y-63556810D01*
X209026655Y-63510950D01*
X209030621Y-63442523D01*
X209033885Y-63393507D01*
X209035374Y-63345468D01*
X209029294Y-63315423D01*
X209012083Y-63292102D01*
X208997716Y-63279032D01*
X208973006Y-63252327D01*
X208964427Y-63231508D01*
X208965361Y-63228594D01*
X208989351Y-63214570D01*
X209025911Y-63220934D01*
G37*
G36*
X239972465Y-62292067D02*
G01*
X240027898Y-62306575D01*
X240070483Y-62332665D01*
X240072885Y-62335111D01*
X240092237Y-62363212D01*
X240119616Y-62412773D01*
X240152282Y-62477753D01*
X240187498Y-62552107D01*
X240222525Y-62629795D01*
X240254626Y-62704772D01*
X240281062Y-62770996D01*
X240299094Y-62822425D01*
X240305608Y-62848691D01*
X240301660Y-62902669D01*
X240277607Y-62941497D01*
X240239887Y-62961700D01*
X240194936Y-62959802D01*
X240149740Y-62932844D01*
X240130518Y-62912277D01*
X240111432Y-62885155D01*
X240090726Y-62847799D01*
X240066648Y-62796530D01*
X240037442Y-62727668D01*
X240001353Y-62637535D01*
X239967649Y-62551008D01*
X239961782Y-62541514D01*
X239953560Y-62542221D01*
X239941218Y-62555947D01*
X239922989Y-62585507D01*
X239897107Y-62633720D01*
X239861806Y-62703401D01*
X239823194Y-62781372D01*
X239781991Y-62863031D01*
X239743575Y-62935490D01*
X239710320Y-62994555D01*
X239684605Y-63036027D01*
X239668806Y-63055712D01*
X239667324Y-63056572D01*
X239625122Y-63065315D01*
X239592623Y-63051030D01*
X239580540Y-63039173D01*
X239564667Y-63014896D01*
X239557612Y-62984319D01*
X239560244Y-62944555D01*
X239573433Y-62892717D01*
X239598048Y-62825919D01*
X239634959Y-62741273D01*
X239685036Y-62635892D01*
X239728513Y-62547997D01*
X239768760Y-62470154D01*
X239806432Y-62402151D01*
X239838748Y-62348685D01*
X239862925Y-62314456D01*
X239872298Y-62305151D01*
X239916495Y-62290980D01*
X239972465Y-62292067D01*
G37*
G36*
X210932214Y-65775845D02*
G01*
X210962267Y-65797306D01*
X210965757Y-65800940D01*
X210991845Y-65847435D01*
X210990472Y-65902423D01*
X210972413Y-65948350D01*
X210957931Y-65987056D01*
X210958457Y-66027403D01*
X210964309Y-66054681D01*
X210971038Y-66137116D01*
X210953144Y-66220313D01*
X210938669Y-66252449D01*
X210905239Y-66290135D01*
X210856963Y-66316597D01*
X210804201Y-66328365D01*
X210757314Y-66321970D01*
X210746960Y-66316651D01*
X210738506Y-66304006D01*
X210753026Y-66286654D01*
X210767215Y-66276267D01*
X210822130Y-66235774D01*
X210855467Y-66202182D01*
X210871760Y-66168587D01*
X210875542Y-66128085D01*
X210874840Y-66112367D01*
X210870531Y-66069818D01*
X210860704Y-66047724D01*
X210839169Y-66037011D01*
X210820569Y-66032779D01*
X210772474Y-66015295D01*
X210737485Y-65988149D01*
X210721861Y-65957273D01*
X210723723Y-65941026D01*
X210747417Y-65916109D01*
X210787318Y-65905151D01*
X210832457Y-65910548D01*
X210843551Y-65914858D01*
X210883448Y-65922099D01*
X210910939Y-65906473D01*
X210919695Y-65872081D01*
X210919051Y-65865902D01*
X210903111Y-65842113D01*
X210870293Y-65830652D01*
X210830128Y-65830631D01*
X210792149Y-65841160D01*
X210765891Y-65861352D01*
X210759588Y-65880768D01*
X210752296Y-65895647D01*
X210744821Y-65894144D01*
X210730126Y-65871375D01*
X210736095Y-65840576D01*
X210757892Y-65808616D01*
X210790680Y-65782365D01*
X210829622Y-65768692D01*
X210833425Y-65768300D01*
X210892376Y-65766943D01*
X210932214Y-65775845D01*
G37*
G36*
X241298097Y-62232355D02*
G01*
X241315124Y-62237796D01*
X241365301Y-62268607D01*
X241418678Y-62318647D01*
X241467461Y-62379735D01*
X241496561Y-62428303D01*
X241519943Y-62470977D01*
X241540270Y-62502155D01*
X241549754Y-62512431D01*
X241568497Y-62534264D01*
X241592286Y-62575556D01*
X241617172Y-62627637D01*
X241639210Y-62681833D01*
X241654451Y-62729471D01*
X241658760Y-62751936D01*
X241665719Y-62803857D01*
X241674710Y-62852604D01*
X241675072Y-62854205D01*
X241677947Y-62894181D01*
X241660986Y-62925029D01*
X241654615Y-62931734D01*
X241624487Y-62955840D01*
X241595625Y-62960138D01*
X241558073Y-62944841D01*
X241539863Y-62934185D01*
X241515482Y-62914192D01*
X241489657Y-62881305D01*
X241459588Y-62831178D01*
X241422476Y-62759463D01*
X241407093Y-62728022D01*
X241375445Y-62661671D01*
X241351621Y-62614046D01*
X241332876Y-62586289D01*
X241316469Y-62579540D01*
X241299656Y-62594939D01*
X241279695Y-62633627D01*
X241253842Y-62696743D01*
X241219354Y-62785429D01*
X241209707Y-62810087D01*
X241181356Y-62879847D01*
X241155237Y-62939671D01*
X241133858Y-62984122D01*
X241119725Y-63007765D01*
X241117568Y-63009820D01*
X241076515Y-63021322D01*
X241030685Y-63014843D01*
X240998214Y-62994871D01*
X240979018Y-62964805D01*
X240973774Y-62944740D01*
X240979514Y-62908671D01*
X240996018Y-62848758D01*
X241022209Y-62768216D01*
X241057012Y-62670259D01*
X241099353Y-62558102D01*
X241124999Y-62492696D01*
X241164438Y-62396105D01*
X241196760Y-62324656D01*
X241224126Y-62275454D01*
X241248697Y-62245601D01*
X241272634Y-62232200D01*
X241298097Y-62232355D01*
G37*
G36*
X210946293Y-63459421D02*
G01*
X210966636Y-63472559D01*
X210990723Y-63508653D01*
X210993255Y-63547098D01*
X210974271Y-63577829D01*
X210966193Y-63583114D01*
X210942884Y-63590481D01*
X210928405Y-63576000D01*
X210922256Y-63561483D01*
X210898529Y-63531562D01*
X210861361Y-63525182D01*
X210813871Y-63541428D01*
X210759178Y-63579387D01*
X210714489Y-63622433D01*
X210669945Y-63671147D01*
X210643460Y-63703417D01*
X210632750Y-63724215D01*
X210635531Y-63738509D01*
X210649519Y-63751269D01*
X210653865Y-63754357D01*
X210679936Y-63788056D01*
X210685751Y-63826485D01*
X210675193Y-63878861D01*
X210646562Y-63911537D01*
X210604425Y-63921028D01*
X210572134Y-63913187D01*
X210556107Y-63895433D01*
X210539837Y-63861256D01*
X210537762Y-63855283D01*
X210523136Y-63821933D01*
X210520892Y-63819319D01*
X210597146Y-63819319D01*
X210608384Y-63833657D01*
X210611914Y-63834086D01*
X210626252Y-63822848D01*
X210626681Y-63819319D01*
X210615443Y-63804980D01*
X210611914Y-63804551D01*
X210597575Y-63815789D01*
X210597146Y-63819319D01*
X210520892Y-63819319D01*
X210508653Y-63805059D01*
X210506426Y-63804551D01*
X210470094Y-63815460D01*
X210427440Y-63843617D01*
X210394167Y-63876088D01*
X210372056Y-63900908D01*
X210362887Y-63904080D01*
X210360957Y-63886858D01*
X210360941Y-63883393D01*
X210373034Y-63852231D01*
X210404243Y-63816159D01*
X210446782Y-63782453D01*
X210492862Y-63758389D01*
X210495873Y-63757305D01*
X210530861Y-63733207D01*
X210553155Y-63700428D01*
X210577329Y-63660367D01*
X210617914Y-63610467D01*
X210667508Y-63558364D01*
X210718710Y-63511694D01*
X210764119Y-63478090D01*
X210774257Y-63472335D01*
X210833957Y-63451659D01*
X210894671Y-63447358D01*
X210946293Y-63459421D01*
G37*
G36*
X208908184Y-64496944D02*
G01*
X208948052Y-64533209D01*
X208969835Y-64588143D01*
X208972728Y-64621104D01*
X208972728Y-64685860D01*
X209072408Y-64703145D01*
X209130573Y-64712652D01*
X209183133Y-64720258D01*
X209215252Y-64723973D01*
X209245319Y-64731861D01*
X209263489Y-64745554D01*
X209265018Y-64758572D01*
X209245164Y-64764434D01*
X209244867Y-64764435D01*
X209227721Y-64766518D01*
X209231783Y-64777801D01*
X209243637Y-64791441D01*
X209264871Y-64834322D01*
X209261964Y-64883143D01*
X209237648Y-64931599D01*
X209194660Y-64973382D01*
X209155316Y-64995120D01*
X209108728Y-65011380D01*
X209074789Y-65012674D01*
X209040900Y-64999362D01*
X209039181Y-64998429D01*
X208992811Y-64959882D01*
X208973778Y-64911897D01*
X208975910Y-64899125D01*
X209038503Y-64899125D01*
X209047348Y-64920437D01*
X209079882Y-64939879D01*
X209119827Y-64933192D01*
X209157992Y-64905397D01*
X209186601Y-64871539D01*
X209190630Y-64846751D01*
X209169994Y-64823598D01*
X209156942Y-64814515D01*
X209128727Y-64798895D01*
X209109020Y-64801676D01*
X209089121Y-64817701D01*
X209049942Y-64862136D01*
X209038503Y-64899125D01*
X208975910Y-64899125D01*
X208982803Y-64857841D01*
X209001826Y-64824117D01*
X209018916Y-64794220D01*
X209022321Y-64775010D01*
X209021516Y-64773844D01*
X208993474Y-64763999D01*
X208959301Y-64777453D01*
X208928425Y-64808737D01*
X208895032Y-64842672D01*
X208863841Y-64851983D01*
X208839774Y-64836347D01*
X208830876Y-64815160D01*
X208830250Y-64781204D01*
X208850228Y-64747703D01*
X208860130Y-64736823D01*
X208886832Y-64700422D01*
X208897743Y-64657400D01*
X208898890Y-64628341D01*
X208895535Y-64581534D01*
X208881519Y-64550027D01*
X208853455Y-64522085D01*
X208808020Y-64483854D01*
X208854126Y-64483854D01*
X208908184Y-64496944D01*
G37*
G36*
X209835663Y-63672558D02*
G01*
X209849102Y-63683883D01*
X209857653Y-63696905D01*
X209863989Y-63717124D01*
X209868425Y-63748637D01*
X209871276Y-63795540D01*
X209872858Y-63861930D01*
X209873486Y-63951903D01*
X209873542Y-64001383D01*
X209873966Y-64090369D01*
X209875150Y-64168335D01*
X209876958Y-64230822D01*
X209879256Y-64273374D01*
X209881908Y-64291532D01*
X209882338Y-64291877D01*
X209899143Y-64284113D01*
X209928673Y-64265113D01*
X209933048Y-64262031D01*
X210017504Y-64218121D01*
X210125846Y-64189131D01*
X210206972Y-64178667D01*
X210265515Y-64174990D01*
X210306628Y-64177370D01*
X210342141Y-64187866D01*
X210383889Y-64208539D01*
X210386404Y-64209905D01*
X210432184Y-64239776D01*
X210469335Y-64276592D01*
X210498579Y-64323344D01*
X210520634Y-64383023D01*
X210536220Y-64458620D01*
X210546058Y-64553125D01*
X210550868Y-64669531D01*
X210551369Y-64810827D01*
X210550248Y-64890636D01*
X210548026Y-64996709D01*
X210545468Y-65077852D01*
X210542134Y-65138672D01*
X210537581Y-65183775D01*
X210531368Y-65217767D01*
X210523052Y-65245253D01*
X210514190Y-65266528D01*
X210486642Y-65319342D01*
X210458672Y-65350567D01*
X210421907Y-65367058D01*
X210383018Y-65373946D01*
X210336987Y-65380872D01*
X210299327Y-65388487D01*
X210294414Y-65389796D01*
X210256690Y-65391173D01*
X210233706Y-65385324D01*
X210202755Y-65363198D01*
X210189710Y-65345293D01*
X210186183Y-65324032D01*
X210182498Y-65277202D01*
X210178832Y-65208767D01*
X210175362Y-65122691D01*
X210172264Y-65022938D01*
X210169715Y-64913473D01*
X210169197Y-64885706D01*
X210166835Y-64757178D01*
X210164468Y-64655124D01*
X210161554Y-64576489D01*
X210157552Y-64518215D01*
X210151921Y-64477247D01*
X210144121Y-64450529D01*
X210133610Y-64435006D01*
X210119848Y-64427620D01*
X210102294Y-64425316D01*
X210087670Y-64425092D01*
X210011622Y-64437503D01*
X209949140Y-64473849D01*
X209917844Y-64509644D01*
X209905930Y-64528243D01*
X209896903Y-64546335D01*
X209890360Y-64568121D01*
X209885903Y-64597804D01*
X209883132Y-64639586D01*
X209881645Y-64697669D01*
X209881043Y-64776255D01*
X209880926Y-64879547D01*
X209880925Y-64897342D01*
X209880747Y-65005911D01*
X209879995Y-65089124D01*
X209878346Y-65151161D01*
X209875476Y-65196200D01*
X209871062Y-65228420D01*
X209864778Y-65251998D01*
X209856302Y-65271114D01*
X209851255Y-65280110D01*
X209807920Y-65328151D01*
X209750289Y-65350681D01*
X209689210Y-65348772D01*
X209647789Y-65337723D01*
X209614248Y-65319826D01*
X209587910Y-65292299D01*
X209568102Y-65252362D01*
X209554149Y-65197233D01*
X209545377Y-65124131D01*
X209541112Y-65030276D01*
X209540678Y-64912885D01*
X209543402Y-64769179D01*
X209543918Y-64749668D01*
X209547045Y-64625541D01*
X209550067Y-64489457D01*
X209552793Y-64351297D01*
X209555029Y-64220943D01*
X209556583Y-64108275D01*
X209556793Y-64088956D01*
X209558226Y-63979027D01*
X209560734Y-63894520D01*
X209565441Y-63831322D01*
X209573472Y-63785320D01*
X209585951Y-63752400D01*
X209604001Y-63728449D01*
X209628748Y-63709356D01*
X209661315Y-63691006D01*
X209666286Y-63688407D01*
X209731168Y-63663719D01*
X209789807Y-63658382D01*
X209835663Y-63672558D01*
G37*
G36*
X210404992Y-50895636D02*
G01*
X210448726Y-50930533D01*
X210495590Y-50992510D01*
X210546339Y-51082443D01*
X210564506Y-51119319D01*
X210638714Y-51274377D01*
X210785712Y-51316121D01*
X210880312Y-51345142D01*
X210948633Y-51371559D01*
X210993621Y-51397025D01*
X211018225Y-51423193D01*
X211025402Y-51450532D01*
X211014575Y-51486706D01*
X210997330Y-51506492D01*
X210973133Y-51536265D01*
X210964103Y-51562708D01*
X210958577Y-51580273D01*
X210944748Y-51597449D01*
X210918899Y-51616539D01*
X210877314Y-51639851D01*
X210816277Y-51669689D01*
X210732073Y-51708361D01*
X210722167Y-51712833D01*
X210634065Y-51752569D01*
X210569361Y-51923647D01*
X210536907Y-52005412D01*
X210510069Y-52063091D01*
X210486542Y-52101051D01*
X210464022Y-52123658D01*
X210463709Y-52123882D01*
X210417994Y-52148663D01*
X210381726Y-52148567D01*
X210354549Y-52129844D01*
X210323842Y-52090567D01*
X210287641Y-52030873D01*
X210250111Y-51958255D01*
X210215418Y-51880207D01*
X210214483Y-51877904D01*
X210176021Y-51782954D01*
X210059361Y-51732240D01*
X209967200Y-51686644D01*
X209903672Y-51642198D01*
X209867934Y-51598183D01*
X209858774Y-51561387D01*
X209850983Y-51524731D01*
X209836623Y-51503272D01*
X209824544Y-51483055D01*
X210035595Y-51483055D01*
X210157621Y-51569295D01*
X210230460Y-51621500D01*
X210282104Y-51660753D01*
X210316014Y-51690358D01*
X210335654Y-51713621D01*
X210344486Y-51733845D01*
X210346100Y-51749210D01*
X210351545Y-51784038D01*
X210365165Y-51829975D01*
X210370914Y-51845273D01*
X210383900Y-51875688D01*
X210394086Y-51889491D01*
X210403753Y-51884072D01*
X210415183Y-51856823D01*
X210430655Y-51805135D01*
X210442145Y-51763781D01*
X210463134Y-51704092D01*
X210485082Y-51673848D01*
X210492469Y-51670334D01*
X210516184Y-51653121D01*
X210539475Y-51620060D01*
X210542132Y-51614771D01*
X210565935Y-51579819D01*
X210603485Y-51554321D01*
X210640307Y-51539167D01*
X210689875Y-51518989D01*
X210711829Y-51503278D01*
X210707460Y-51490440D01*
X210686969Y-51481508D01*
X210645087Y-51460704D01*
X210608361Y-51430157D01*
X210585678Y-51398144D01*
X210582379Y-51384061D01*
X210572900Y-51360714D01*
X210560320Y-51355598D01*
X210538464Y-51343643D01*
X210508788Y-51312588D01*
X210476885Y-51269651D01*
X210448343Y-51222048D01*
X210434954Y-51193757D01*
X210418772Y-51163064D01*
X210404492Y-51148955D01*
X210403591Y-51148854D01*
X210390876Y-51161027D01*
X210370206Y-51192821D01*
X210347927Y-51233766D01*
X210318964Y-51287135D01*
X210290464Y-51326869D01*
X210255537Y-51359416D01*
X210207292Y-51391220D01*
X210140327Y-51427944D01*
X210035595Y-51483055D01*
X209824544Y-51483055D01*
X209818193Y-51472424D01*
X209816498Y-51434181D01*
X209832097Y-51403741D01*
X209832931Y-51403030D01*
X209859284Y-51390160D01*
X209899283Y-51378883D01*
X209904546Y-51377844D01*
X209942059Y-51366165D01*
X209995401Y-51343767D01*
X210054900Y-51314828D01*
X210073986Y-51304690D01*
X210190269Y-51241469D01*
X210259873Y-51065946D01*
X210289899Y-50991980D01*
X210312541Y-50941480D01*
X210330324Y-50910092D01*
X210345773Y-50893457D01*
X210361414Y-50887221D01*
X210363631Y-50886943D01*
X210404992Y-50895636D01*
G37*
G36*
X210007100Y-52311831D02*
G01*
X210024224Y-52326557D01*
X210039803Y-52350865D01*
X210063257Y-52394890D01*
X210090754Y-52451232D01*
X210106445Y-52485307D01*
X210140126Y-52560082D01*
X210179425Y-52647333D01*
X210217832Y-52732605D01*
X210232823Y-52765888D01*
X210262395Y-52833558D01*
X210289036Y-52898126D01*
X210309175Y-52950751D01*
X210317306Y-52975109D01*
X210335279Y-53036654D01*
X210565893Y-53136187D01*
X210683256Y-53187242D01*
X210777091Y-53229208D01*
X210851224Y-53264131D01*
X210909481Y-53294057D01*
X210955689Y-53321034D01*
X210993675Y-53347108D01*
X211027266Y-53374324D01*
X211050361Y-53395291D01*
X211090374Y-53430922D01*
X211123323Y-53456681D01*
X211142438Y-53467301D01*
X211143023Y-53467342D01*
X211161483Y-53481822D01*
X211178857Y-53524114D01*
X211193708Y-53588525D01*
X211197341Y-53623124D01*
X211190193Y-53650702D01*
X211168059Y-53682107D01*
X211149055Y-53703747D01*
X211117491Y-53737460D01*
X211089608Y-53761787D01*
X211059022Y-53779496D01*
X211019352Y-53793355D01*
X210964215Y-53806130D01*
X210887229Y-53820589D01*
X210874189Y-53822933D01*
X210784693Y-53841547D01*
X210684530Y-53866365D01*
X210589788Y-53893268D01*
X210550823Y-53905759D01*
X210393743Y-53958752D01*
X210386348Y-54013890D01*
X210372015Y-54076784D01*
X210344705Y-54158633D01*
X210307260Y-54253450D01*
X210262522Y-54355248D01*
X210213332Y-54458042D01*
X210162533Y-54555844D01*
X210112966Y-54642668D01*
X210067473Y-54712527D01*
X210035847Y-54752257D01*
X209995768Y-54791153D01*
X209964459Y-54807925D01*
X209934538Y-54805179D01*
X209914152Y-54795229D01*
X209894143Y-54769919D01*
X209888309Y-54743161D01*
X209875267Y-54705537D01*
X209836125Y-54654204D01*
X209812783Y-54629447D01*
X209753190Y-54557405D01*
X209694931Y-54465607D01*
X209670587Y-54419842D01*
X209632454Y-54345502D01*
X209589663Y-54264658D01*
X209549831Y-54191641D01*
X209539368Y-54173000D01*
X209510158Y-54118154D01*
X209487836Y-54069983D01*
X209475903Y-54036306D01*
X209474821Y-54028897D01*
X209464869Y-54004303D01*
X209431926Y-53982621D01*
X209412059Y-53974165D01*
X209357986Y-53951131D01*
X209288451Y-53918743D01*
X209208362Y-53879575D01*
X209122624Y-53836202D01*
X209036147Y-53791197D01*
X208953836Y-53747135D01*
X208880598Y-53706590D01*
X208821342Y-53672137D01*
X208780975Y-53646350D01*
X208768132Y-53636362D01*
X208754734Y-53624002D01*
X209124041Y-53624002D01*
X209126668Y-53631364D01*
X209142553Y-53637893D01*
X209168295Y-53648749D01*
X209213270Y-53668854D01*
X209270006Y-53694839D01*
X209304995Y-53711109D01*
X209376271Y-53742940D01*
X209451250Y-53774004D01*
X209517171Y-53799086D01*
X209536465Y-53805725D01*
X209602710Y-53830432D01*
X209643416Y-53853775D01*
X209662238Y-53878877D01*
X209662828Y-53908859D01*
X209661864Y-53912868D01*
X209663862Y-53946980D01*
X209674755Y-53960941D01*
X209687984Y-53979636D01*
X209709939Y-54020297D01*
X209737970Y-54077635D01*
X209769429Y-54146359D01*
X209782522Y-54176179D01*
X209831456Y-54287732D01*
X209870500Y-54373717D01*
X209900602Y-54436041D01*
X209922714Y-54476611D01*
X209937783Y-54497333D01*
X209944336Y-54501063D01*
X209953856Y-54488230D01*
X209972109Y-54453086D01*
X209996663Y-54400663D01*
X210025084Y-54335993D01*
X210031808Y-54320162D01*
X210082483Y-54199927D01*
X210123396Y-54103428D01*
X210156550Y-54027309D01*
X210183951Y-53968215D01*
X210207601Y-53922794D01*
X210229507Y-53887688D01*
X210251671Y-53859545D01*
X210276098Y-53835010D01*
X210304793Y-53810728D01*
X210339760Y-53783344D01*
X210363657Y-53764755D01*
X210436375Y-53715584D01*
X210527802Y-53665270D01*
X210627758Y-53618821D01*
X210726063Y-53581246D01*
X210755896Y-53571798D01*
X210807031Y-53555134D01*
X210844877Y-53540051D01*
X210862478Y-53529386D01*
X210862960Y-53528122D01*
X210850367Y-53517363D01*
X210816589Y-53498300D01*
X210767626Y-53474176D01*
X210737931Y-53460605D01*
X210643786Y-53416374D01*
X210545337Y-53366136D01*
X210447905Y-53312976D01*
X210356815Y-53259976D01*
X210277390Y-53210222D01*
X210214954Y-53166796D01*
X210178593Y-53136562D01*
X210146473Y-53104149D01*
X210120848Y-53073921D01*
X210098826Y-53040460D01*
X210077515Y-52998350D01*
X210054024Y-52942175D01*
X210025461Y-52866517D01*
X210006147Y-52813549D01*
X209981989Y-52748180D01*
X209961371Y-52694774D01*
X209946323Y-52658419D01*
X209938875Y-52644208D01*
X209938592Y-52644229D01*
X209931285Y-52658384D01*
X209913505Y-52695279D01*
X209887176Y-52750847D01*
X209854224Y-52821020D01*
X209816572Y-52901733D01*
X209807407Y-52921452D01*
X209767373Y-53005818D01*
X209729600Y-53082045D01*
X209696447Y-53145632D01*
X209670274Y-53192077D01*
X209653440Y-53216878D01*
X209651624Y-53218663D01*
X209628913Y-53251283D01*
X209622495Y-53279135D01*
X209611834Y-53316386D01*
X209592960Y-53341819D01*
X209570815Y-53367836D01*
X209563425Y-53386121D01*
X209558925Y-53406330D01*
X209543209Y-53425048D01*
X209512950Y-53443866D01*
X209464825Y-53464376D01*
X209395509Y-53488169D01*
X209301677Y-53516836D01*
X209272330Y-53525437D01*
X209215598Y-53543623D01*
X209183909Y-53558495D01*
X209173282Y-53572197D01*
X209174193Y-53578257D01*
X209169077Y-53600460D01*
X209147789Y-53613442D01*
X209124041Y-53624002D01*
X208754734Y-53624002D01*
X208730952Y-53602063D01*
X208698326Y-53572514D01*
X208690177Y-53565299D01*
X208666609Y-53534891D01*
X208668005Y-53502171D01*
X208691997Y-53463503D01*
X208713053Y-53443959D01*
X208747681Y-53423116D01*
X208798417Y-53400009D01*
X208867797Y-53373671D01*
X208958357Y-53343137D01*
X209072635Y-53307441D01*
X209206577Y-53267546D01*
X209462578Y-53192541D01*
X209548043Y-52983996D01*
X209580787Y-52906003D01*
X209612786Y-52833170D01*
X209641048Y-52772073D01*
X209662585Y-52729289D01*
X209668517Y-52718983D01*
X209692902Y-52677007D01*
X209723661Y-52620441D01*
X209754285Y-52561273D01*
X209755308Y-52559235D01*
X209796068Y-52488311D01*
X209832938Y-52446074D01*
X209847699Y-52436598D01*
X209881013Y-52409366D01*
X209888309Y-52382184D01*
X209900093Y-52339913D01*
X209929631Y-52311718D01*
X209968207Y-52301168D01*
X210007100Y-52311831D01*
G37*
%TD*%
M02*
